<mxfile host="Electron" modified="2024-08-09T05:21:20.845Z" agent="Mozilla/5.0 (Windows NT 10.0; Win64; x64) AppleWebKit/537.36 (KHTML, like Gecko) draw.io/22.1.18 Chrome/120.0.6099.199 Electron/28.1.2 Safari/537.36" etag="zr5gfUgFAbhNI0KPEm8p" version="22.1.18" type="device">
  <diagram id="pSgHoA8hmrJTVLJIogtW" name="scaffolding">
    <mxGraphModel dx="5400" dy="4136" grid="1" gridSize="10" guides="1" tooltips="1" connect="1" arrows="1" fold="1" page="0" pageScale="1" pageWidth="827" pageHeight="1169" math="0" shadow="0">
      <root>
        <mxCell id="0" />
        <mxCell id="1" parent="0" />
        <mxCell id="ajJ4fGMmNMzAooFR_enY-1" value="&lt;div style=&quot;color: rgb(245, 245, 245); background-color: rgb(28, 30, 39); font-family: Consolas, &amp;quot;Courier New&amp;quot;, monospace; font-size: 14px; line-height: 19px;&quot;&gt;&lt;div&gt;&lt;br&gt;&lt;/div&gt;&lt;/div&gt;" style="text;html=1;align=left;verticalAlign=middle;resizable=0;points=[];autosize=1;strokeColor=none;fillColor=none;" vertex="1" parent="1">
          <mxGeometry x="70" y="205" width="20" height="30" as="geometry" />
        </mxCell>
        <mxCell id="ajJ4fGMmNMzAooFR_enY-5" value="&lt;b&gt;&lt;font style=&quot;font-size: 15px;&quot;&gt;index.html&lt;/font&gt;&lt;/b&gt;" style="text;html=1;align=center;verticalAlign=middle;resizable=0;points=[];autosize=1;strokeColor=none;fillColor=none;" vertex="1" parent="1">
          <mxGeometry x="-110" y="-790" width="100" height="30" as="geometry" />
        </mxCell>
        <mxCell id="ajJ4fGMmNMzAooFR_enY-8" value="&lt;div style=&quot;color: rgb(245, 245, 245); background-color: rgb(28, 30, 39); font-family: Consolas, &amp;quot;Courier New&amp;quot;, monospace; font-size: 14px; line-height: 19px;&quot;&gt;&lt;div&gt;&lt;br&gt;&lt;/div&gt;&lt;/div&gt;" style="text;html=1;align=left;verticalAlign=middle;resizable=0;points=[];autosize=1;strokeColor=none;fillColor=none;" vertex="1" parent="1">
          <mxGeometry x="710" y="458" width="20" height="30" as="geometry" />
        </mxCell>
        <mxCell id="ajJ4fGMmNMzAooFR_enY-20" value="&lt;font style=&quot;font-size: 24px;&quot;&gt;scaffolding&lt;/font&gt;" style="rounded=0;whiteSpace=wrap;html=1;fillColor=#eeeeee;strokeColor=#36393d;" vertex="1" parent="1">
          <mxGeometry x="400" y="-880" width="680" height="40" as="geometry" />
        </mxCell>
        <mxCell id="ajJ4fGMmNMzAooFR_enY-21" value="&lt;font style=&quot;font-size: 24px;&quot;&gt;native&lt;/font&gt;" style="rounded=0;whiteSpace=wrap;html=1;fillColor=#eeeeee;strokeColor=#36393d;" vertex="1" parent="1">
          <mxGeometry x="-400" y="-880" width="680" height="40" as="geometry" />
        </mxCell>
        <mxCell id="ajJ4fGMmNMzAooFR_enY-25" value="&lt;div style=&quot;color: rgb(245, 245, 245); background-color: rgb(28, 30, 39); font-family: Consolas, &amp;quot;Courier New&amp;quot;, monospace; font-size: 14px; line-height: 19px;&quot;&gt;&lt;div&gt;&lt;br&gt;&lt;/div&gt;&lt;/div&gt;" style="text;html=1;align=left;verticalAlign=middle;resizable=0;points=[];autosize=1;strokeColor=none;fillColor=none;" vertex="1" parent="1">
          <mxGeometry x="310" y="-212" width="20" height="30" as="geometry" />
        </mxCell>
        <mxCell id="ajJ4fGMmNMzAooFR_enY-28" value="&lt;div style=&quot;border-color: var(--border-color); color: rgb(245, 245, 245); font-family: Consolas, &amp;quot;Courier New&amp;quot;, monospace; font-size: 15px;&quot;&gt;&amp;lt;!DOCTYPE&amp;nbsp;&lt;span style=&quot;border-color: var(--border-color); color: rgb(188, 212, 207); font-size: 15px;&quot;&gt;html&amp;gt;&lt;/span&gt;&lt;/div&gt;&lt;div style=&quot;border-color: var(--border-color); color: rgb(245, 245, 245); font-family: Consolas, &amp;quot;Courier New&amp;quot;, monospace; font-size: 15px;&quot;&gt;&lt;span style=&quot;border-color: var(--border-color); color: rgb(188, 212, 207); font-size: 15px;&quot;&gt;&amp;lt;&lt;/span&gt;&lt;span style=&quot;border-color: var(--border-color); color: rgb(120, 168, 214); font-weight: bold; font-size: 15px;&quot;&gt;html&lt;/span&gt;&amp;nbsp;&lt;span style=&quot;border-color: var(--border-color); color: rgb(188, 212, 207); font-size: 15px;&quot;&gt;lang&lt;/span&gt;&lt;span style=&quot;border-color: var(--border-color); color: rgb(122, 218, 209); font-weight: bold; font-size: 15px;&quot;&gt;=&lt;/span&gt;&lt;span style=&quot;border-color: var(--border-color); color: rgb(122, 218, 209); font-size: 15px;&quot;&gt;&quot;en&quot;&lt;/span&gt;&lt;span style=&quot;border-color: var(--border-color); color: rgb(188, 212, 207); font-size: 15px;&quot;&gt;&amp;gt;&lt;/span&gt;&lt;/div&gt;&lt;div style=&quot;border-color: var(--border-color); color: rgb(245, 245, 245); font-family: Consolas, &amp;quot;Courier New&amp;quot;, monospace; font-size: 15px;&quot;&gt;&amp;nbsp;&amp;nbsp;&lt;span style=&quot;border-color: var(--border-color); color: rgb(188, 212, 207); font-size: 15px;&quot;&gt;&amp;lt;&lt;/span&gt;&lt;span style=&quot;border-color: var(--border-color); color: rgb(120, 168, 214); font-weight: bold; font-size: 15px;&quot;&gt;head&lt;/span&gt;&lt;span style=&quot;border-color: var(--border-color); color: rgb(188, 212, 207); font-size: 15px;&quot;&gt;&amp;gt;&lt;/span&gt;&lt;/div&gt;&lt;div style=&quot;border-color: var(--border-color); color: rgb(245, 245, 245); font-family: Consolas, &amp;quot;Courier New&amp;quot;, monospace; font-size: 15px;&quot;&gt;&amp;nbsp; &amp;nbsp;&amp;nbsp;&lt;span style=&quot;border-color: var(--border-color); color: rgb(188, 212, 207); font-size: 15px;&quot;&gt;&amp;lt;&lt;/span&gt;&lt;span style=&quot;border-color: var(--border-color); color: rgb(120, 168, 214); font-weight: bold; font-size: 15px;&quot;&gt;meta&lt;/span&gt;&amp;nbsp;&lt;span style=&quot;border-color: var(--border-color); color: rgb(188, 212, 207); font-size: 15px;&quot;&gt;charset&lt;/span&gt;&lt;span style=&quot;border-color: var(--border-color); color: rgb(122, 218, 209); font-weight: bold; font-size: 15px;&quot;&gt;=&lt;/span&gt;&lt;span style=&quot;border-color: var(--border-color); color: rgb(122, 218, 209); font-size: 15px;&quot;&gt;&quot;UTF-8&quot;&lt;/span&gt;&amp;nbsp;&lt;span style=&quot;border-color: var(--border-color); color: rgb(188, 212, 207); font-size: 15px;&quot;&gt;/&amp;gt;&lt;/span&gt;&lt;/div&gt;&lt;div style=&quot;border-color: var(--border-color); color: rgb(245, 245, 245); font-family: Consolas, &amp;quot;Courier New&amp;quot;, monospace; font-size: 15px;&quot;&gt;&amp;nbsp; &amp;nbsp;&amp;nbsp;&lt;span style=&quot;border-color: var(--border-color); color: rgb(188, 212, 207); font-size: 15px;&quot;&gt;&amp;lt;&lt;/span&gt;&lt;span style=&quot;border-color: var(--border-color); color: rgb(120, 168, 214); font-weight: bold; font-size: 15px;&quot;&gt;meta&lt;/span&gt;&amp;nbsp;&lt;span style=&quot;border-color: var(--border-color); color: rgb(188, 212, 207); font-size: 15px;&quot;&gt;name&lt;/span&gt;&lt;span style=&quot;border-color: var(--border-color); color: rgb(122, 218, 209); font-weight: bold; font-size: 15px;&quot;&gt;=&lt;/span&gt;&lt;span style=&quot;border-color: var(--border-color); color: rgb(122, 218, 209); font-size: 15px;&quot;&gt;&quot;viewport&quot;&lt;/span&gt;&amp;nbsp;&lt;span style=&quot;border-color: var(--border-color); color: rgb(188, 212, 207); font-size: 15px;&quot;&gt;content&lt;/span&gt;&lt;span style=&quot;border-color: var(--border-color); color: rgb(122, 218, 209); font-weight: bold; font-size: 15px;&quot;&gt;=&lt;/span&gt;&lt;span style=&quot;border-color: var(--border-color); color: rgb(122, 218, 209); font-size: 15px;&quot;&gt;&quot;width=device-width, initial-scale=1.0&quot;&lt;/span&gt;&amp;nbsp;&lt;span style=&quot;border-color: var(--border-color); color: rgb(188, 212, 207); font-size: 15px;&quot;&gt;/&amp;gt;&lt;/span&gt;&lt;/div&gt;&lt;div style=&quot;border-color: var(--border-color); color: rgb(245, 245, 245); font-family: Consolas, &amp;quot;Courier New&amp;quot;, monospace; font-size: 15px;&quot;&gt;&amp;nbsp; &amp;nbsp;&amp;nbsp;&lt;span style=&quot;border-color: var(--border-color); color: rgb(188, 212, 207); font-size: 15px;&quot;&gt;&amp;lt;&lt;/span&gt;&lt;span style=&quot;border-color: var(--border-color); color: rgb(120, 168, 214); font-weight: bold; font-size: 15px;&quot;&gt;title&lt;/span&gt;&lt;span style=&quot;border-color: var(--border-color); color: rgb(188, 212, 207); font-size: 15px;&quot;&gt;&amp;gt;&lt;/span&gt;Document&lt;span style=&quot;border-color: var(--border-color); color: rgb(188, 212, 207); font-size: 15px;&quot;&gt;&amp;lt;/&lt;/span&gt;&lt;span style=&quot;border-color: var(--border-color); color: rgb(120, 168, 214); font-weight: bold; font-size: 15px;&quot;&gt;title&lt;/span&gt;&lt;span style=&quot;border-color: var(--border-color); color: rgb(188, 212, 207); font-size: 15px;&quot;&gt;&amp;gt;&lt;/span&gt;&lt;/div&gt;&lt;br style=&quot;border-color: var(--border-color); font-size: 15px;&quot;&gt;&lt;div style=&quot;border-color: var(--border-color); color: rgb(245, 245, 245); font-family: Consolas, &amp;quot;Courier New&amp;quot;, monospace; font-size: 15px;&quot;&gt;&amp;nbsp; &amp;nbsp;&amp;nbsp;&lt;span style=&quot;border-color: var(--border-color); color: rgb(188, 212, 207); font-size: 15px;&quot;&gt;&amp;lt;&lt;/span&gt;&lt;span style=&quot;border-color: var(--border-color); color: rgb(120, 168, 214); font-weight: bold; font-size: 15px;&quot;&gt;script&lt;/span&gt;&amp;nbsp;&lt;span style=&quot;border-color: var(--border-color); color: rgb(188, 212, 207); font-size: 15px;&quot;&gt;src&lt;/span&gt;&lt;span style=&quot;border-color: var(--border-color); color: rgb(122, 218, 209); font-weight: bold; font-size: 15px;&quot;&gt;=&lt;/span&gt;&lt;span style=&quot;border-color: var(--border-color); color: rgb(122, 218, 209); font-size: 15px;&quot;&gt;&quot;https://unpkg.com/vue@latest&quot;&lt;/span&gt;&lt;span style=&quot;border-color: var(--border-color); color: rgb(188, 212, 207); font-size: 15px;&quot;&gt;&amp;gt;&amp;lt;/&lt;/span&gt;&lt;span style=&quot;border-color: var(--border-color); color: rgb(120, 168, 214); font-weight: bold; font-size: 15px;&quot;&gt;script&lt;/span&gt;&lt;span style=&quot;border-color: var(--border-color); color: rgb(188, 212, 207); font-size: 15px;&quot;&gt;&amp;gt;&lt;/span&gt;&lt;/div&gt;&lt;div style=&quot;border-color: var(--border-color); color: rgb(245, 245, 245); font-family: Consolas, &amp;quot;Courier New&amp;quot;, monospace; font-size: 15px;&quot;&gt;&amp;nbsp; &amp;nbsp;&amp;nbsp;&lt;span style=&quot;border-color: var(--border-color); color: rgb(188, 212, 207); font-size: 15px;&quot;&gt;&amp;lt;&lt;/span&gt;&lt;span style=&quot;border-color: var(--border-color); color: rgb(120, 168, 214); font-weight: bold; font-size: 15px;&quot;&gt;link&lt;/span&gt;&amp;nbsp;&lt;span style=&quot;border-color: var(--border-color); color: rgb(188, 212, 207); font-size: 15px;&quot;&gt;rel&lt;/span&gt;&lt;span style=&quot;border-color: var(--border-color); color: rgb(122, 218, 209); font-weight: bold; font-size: 15px;&quot;&gt;=&lt;/span&gt;&lt;span style=&quot;border-color: var(--border-color); color: rgb(122, 218, 209); font-size: 15px;&quot;&gt;&quot;stylesheet&quot;&lt;/span&gt;&amp;nbsp;&lt;span style=&quot;border-color: var(--border-color); color: rgb(188, 212, 207); font-size: 15px;&quot;&gt;href&lt;/span&gt;&lt;span style=&quot;border-color: var(--border-color); color: rgb(122, 218, 209); font-weight: bold; font-size: 15px;&quot;&gt;=&lt;/span&gt;&lt;span style=&quot;border-color: var(--border-color); color: rgb(122, 218, 209); font-size: 15px;&quot;&gt;&quot;style.css&quot;&lt;/span&gt;&amp;nbsp;&lt;span style=&quot;border-color: var(--border-color); color: rgb(188, 212, 207); font-size: 15px;&quot;&gt;/&amp;gt;&lt;/span&gt;&lt;/div&gt;&lt;div style=&quot;border-color: var(--border-color); color: rgb(245, 245, 245); font-family: Consolas, &amp;quot;Courier New&amp;quot;, monospace; font-size: 15px;&quot;&gt;&amp;nbsp;&amp;nbsp;&lt;span style=&quot;border-color: var(--border-color); color: rgb(188, 212, 207); font-size: 15px;&quot;&gt;&amp;lt;/&lt;/span&gt;&lt;span style=&quot;border-color: var(--border-color); color: rgb(120, 168, 214); font-weight: bold; font-size: 15px;&quot;&gt;head&lt;/span&gt;&lt;span style=&quot;border-color: var(--border-color); color: rgb(188, 212, 207); font-size: 15px;&quot;&gt;&amp;gt;&lt;/span&gt;&lt;/div&gt;&lt;br style=&quot;border-color: var(--border-color); font-size: 15px;&quot;&gt;&lt;div style=&quot;border-color: var(--border-color); color: rgb(245, 245, 245); font-family: Consolas, &amp;quot;Courier New&amp;quot;, monospace; font-size: 15px;&quot;&gt;&amp;nbsp;&amp;nbsp;&lt;span style=&quot;border-color: var(--border-color); color: rgb(188, 212, 207); font-size: 15px;&quot;&gt;&amp;lt;&lt;/span&gt;&lt;span style=&quot;border-color: var(--border-color); color: rgb(120, 168, 214); font-weight: bold; font-size: 15px;&quot;&gt;body&lt;/span&gt;&lt;span style=&quot;border-color: var(--border-color); color: rgb(188, 212, 207); font-size: 15px;&quot;&gt;&amp;gt;&lt;/span&gt;&lt;/div&gt;&lt;div style=&quot;border-color: var(--border-color); color: rgb(245, 245, 245); font-family: Consolas, &amp;quot;Courier New&amp;quot;, monospace; font-size: 15px;&quot;&gt;&amp;nbsp; &amp;nbsp;&amp;nbsp;&lt;span style=&quot;border-color: var(--border-color); color: rgb(188, 212, 207); font-size: 15px;&quot;&gt;&amp;lt;&lt;/span&gt;&lt;span style=&quot;border-color: var(--border-color); color: rgb(120, 168, 214); font-weight: bold; font-size: 15px;&quot;&gt;div&lt;/span&gt;&amp;nbsp;&lt;span style=&quot;border-color: var(--border-color); color: rgb(188, 212, 207); font-size: 15px;&quot;&gt;id&lt;/span&gt;&lt;span style=&quot;border-color: var(--border-color); color: rgb(122, 218, 209); font-weight: bold; font-size: 15px;&quot;&gt;=&lt;/span&gt;&lt;span style=&quot;border-color: var(--border-color); color: rgb(122, 218, 209); font-size: 15px;&quot;&gt;&quot;app&quot;&lt;/span&gt;&lt;span style=&quot;border-color: var(--border-color); color: rgb(188, 212, 207); font-size: 15px;&quot;&gt;&amp;gt;&lt;/span&gt;&lt;/div&gt;&lt;div style=&quot;border-color: var(--border-color); color: rgb(245, 245, 245); font-family: Consolas, &amp;quot;Courier New&amp;quot;, monospace; font-size: 15px;&quot;&gt;&amp;nbsp; &amp;nbsp; &amp;nbsp;&amp;nbsp;&lt;span style=&quot;border-color: var(--border-color); color: rgb(188, 212, 207); font-size: 15px;&quot;&gt;&amp;lt;&lt;/span&gt;&lt;span style=&quot;border-color: var(--border-color); color: rgb(120, 168, 214); font-weight: bold; font-size: 15px;&quot;&gt;label&lt;/span&gt;&lt;span style=&quot;border-color: var(--border-color); color: rgb(188, 212, 207); font-size: 15px;&quot;&gt;&amp;gt;&lt;/span&gt;&lt;/div&gt;&lt;div style=&quot;border-color: var(--border-color); color: rgb(245, 245, 245); font-family: Consolas, &amp;quot;Courier New&amp;quot;, monospace; font-size: 15px;&quot;&gt;&amp;nbsp; &amp;nbsp; &amp;nbsp; &amp;nbsp; Purple&lt;/div&gt;&lt;div style=&quot;border-color: var(--border-color); color: rgb(245, 245, 245); font-family: Consolas, &amp;quot;Courier New&amp;quot;, monospace; font-size: 15px;&quot;&gt;&amp;nbsp; &amp;nbsp; &amp;nbsp; &amp;nbsp;&amp;nbsp;&lt;span style=&quot;border-color: var(--border-color); color: rgb(188, 212, 207); font-size: 15px;&quot;&gt;&amp;lt;&lt;/span&gt;&lt;span style=&quot;border-color: var(--border-color); color: rgb(120, 168, 214); font-weight: bold; font-size: 15px;&quot;&gt;input&lt;/span&gt;&amp;nbsp;&lt;span style=&quot;border-color: var(--border-color); color: rgb(188, 212, 207); font-size: 15px;&quot;&gt;type&lt;/span&gt;&lt;span style=&quot;border-color: var(--border-color); color: rgb(122, 218, 209); font-weight: bold; font-size: 15px;&quot;&gt;=&lt;/span&gt;&lt;span style=&quot;border-color: var(--border-color); color: rgb(122, 218, 209); font-size: 15px;&quot;&gt;&quot;checkbox&quot;&lt;/span&gt;&amp;nbsp;&lt;span style=&quot;border-color: var(--border-color); color: rgb(188, 212, 207); font-size: 15px;&quot;&gt;v-model&lt;/span&gt;&lt;span style=&quot;border-color: var(--border-color); color: rgb(122, 218, 209); font-weight: bold; font-size: 15px;&quot;&gt;=&lt;/span&gt;&lt;span style=&quot;border-color: var(--border-color); color: rgb(122, 218, 209); font-size: 15px;&quot;&gt;&quot;&lt;/span&gt;&lt;span style=&quot;border-color: var(--border-color); color: rgb(133, 238, 167); font-size: 15px;&quot;&gt;isPurple&lt;/span&gt;&lt;span style=&quot;border-color: var(--border-color); color: rgb(122, 218, 209); font-size: 15px;&quot;&gt;&quot;&lt;/span&gt;&amp;nbsp;&lt;span style=&quot;border-color: var(--border-color); color: rgb(188, 212, 207); font-size: 15px;&quot;&gt;/&amp;gt;&lt;/span&gt;&lt;/div&gt;&lt;div style=&quot;border-color: var(--border-color); color: rgb(245, 245, 245); font-family: Consolas, &amp;quot;Courier New&amp;quot;, monospace; font-size: 15px;&quot;&gt;&amp;nbsp; &amp;nbsp; &amp;nbsp;&amp;nbsp;&lt;span style=&quot;border-color: var(--border-color); color: rgb(188, 212, 207); font-size: 15px;&quot;&gt;&amp;lt;/&lt;/span&gt;&lt;span style=&quot;border-color: var(--border-color); color: rgb(120, 168, 214); font-weight: bold; font-size: 15px;&quot;&gt;label&lt;/span&gt;&lt;span style=&quot;border-color: var(--border-color); color: rgb(188, 212, 207); font-size: 15px;&quot;&gt;&amp;gt;&lt;/span&gt;&lt;/div&gt;&lt;br style=&quot;border-color: var(--border-color); font-size: 15px;&quot;&gt;&lt;div style=&quot;border-color: var(--border-color); color: rgb(245, 245, 245); font-family: Consolas, &amp;quot;Courier New&amp;quot;, monospace; font-size: 15px;&quot;&gt;&amp;nbsp; &amp;nbsp; &amp;nbsp;&amp;nbsp;&lt;span style=&quot;border-color: var(--border-color); color: rgb(188, 212, 207); font-size: 15px;&quot;&gt;&amp;lt;&lt;/span&gt;&lt;span style=&quot;border-color: var(--border-color); color: rgb(120, 168, 214); font-weight: bold; font-size: 15px;&quot;&gt;select&lt;/span&gt;&amp;nbsp;&lt;span style=&quot;border-color: var(--border-color); color: rgb(188, 212, 207); font-size: 15px;&quot;&gt;v-model&lt;/span&gt;&lt;span style=&quot;border-color: var(--border-color); color: rgb(122, 218, 209); font-weight: bold; font-size: 15px;&quot;&gt;=&lt;/span&gt;&lt;span style=&quot;border-color: var(--border-color); color: rgb(122, 218, 209); font-size: 15px;&quot;&gt;&quot;&lt;/span&gt;&lt;span style=&quot;border-color: var(--border-color); color: rgb(133, 238, 167); font-size: 15px;&quot;&gt;textColor&lt;/span&gt;&lt;span style=&quot;border-color: var(--border-color); color: rgb(122, 218, 209); font-size: 15px;&quot;&gt;&quot;&lt;/span&gt;&lt;span style=&quot;border-color: var(--border-color); color: rgb(188, 212, 207); font-size: 15px;&quot;&gt;&amp;gt;&lt;/span&gt;&lt;/div&gt;&lt;div style=&quot;border-color: var(--border-color); color: rgb(245, 245, 245); font-family: Consolas, &amp;quot;Courier New&amp;quot;, monospace; font-size: 15px;&quot;&gt;&amp;nbsp; &amp;nbsp; &amp;nbsp; &amp;nbsp;&amp;nbsp;&lt;span style=&quot;border-color: var(--border-color); color: rgb(188, 212, 207); font-size: 15px;&quot;&gt;&amp;lt;&lt;/span&gt;&lt;span style=&quot;border-color: var(--border-color); color: rgb(120, 168, 214); font-weight: bold; font-size: 15px;&quot;&gt;option&lt;/span&gt;&amp;nbsp;&lt;span style=&quot;border-color: var(--border-color); color: rgb(188, 212, 207); font-size: 15px;&quot;&gt;value&lt;/span&gt;&lt;span style=&quot;border-color: var(--border-color); color: rgb(122, 218, 209); font-weight: bold; font-size: 15px;&quot;&gt;=&lt;/span&gt;&lt;span style=&quot;border-color: var(--border-color); color: rgb(122, 218, 209); font-size: 15px;&quot;&gt;&quot;&quot;&lt;/span&gt;&lt;span style=&quot;border-color: var(--border-color); color: rgb(188, 212, 207); font-size: 15px;&quot;&gt;&amp;gt;&lt;/span&gt;White&lt;span style=&quot;border-color: var(--border-color); color: rgb(188, 212, 207); font-size: 15px;&quot;&gt;&amp;lt;/&lt;/span&gt;&lt;span style=&quot;border-color: var(--border-color); color: rgb(120, 168, 214); font-weight: bold; font-size: 15px;&quot;&gt;option&lt;/span&gt;&lt;span style=&quot;border-color: var(--border-color); color: rgb(188, 212, 207); font-size: 15px;&quot;&gt;&amp;gt;&lt;/span&gt;&lt;/div&gt;&lt;div style=&quot;border-color: var(--border-color); color: rgb(245, 245, 245); font-family: Consolas, &amp;quot;Courier New&amp;quot;, monospace; font-size: 15px;&quot;&gt;&amp;nbsp; &amp;nbsp; &amp;nbsp; &amp;nbsp;&amp;nbsp;&lt;span style=&quot;border-color: var(--border-color); color: rgb(188, 212, 207); font-size: 15px;&quot;&gt;&amp;lt;&lt;/span&gt;&lt;span style=&quot;border-color: var(--border-color); color: rgb(120, 168, 214); font-weight: bold; font-size: 15px;&quot;&gt;option&lt;/span&gt;&amp;nbsp;&lt;span style=&quot;border-color: var(--border-color); color: rgb(188, 212, 207); font-size: 15px;&quot;&gt;value&lt;/span&gt;&lt;span style=&quot;border-color: var(--border-color); color: rgb(122, 218, 209); font-weight: bold; font-size: 15px;&quot;&gt;=&lt;/span&gt;&lt;span style=&quot;border-color: var(--border-color); color: rgb(122, 218, 209); font-size: 15px;&quot;&gt;&quot;text-black&quot;&lt;/span&gt;&lt;span style=&quot;border-color: var(--border-color); color: rgb(188, 212, 207); font-size: 15px;&quot;&gt;&amp;gt;&lt;/span&gt;Black&lt;span style=&quot;border-color: var(--border-color); color: rgb(188, 212, 207); font-size: 15px;&quot;&gt;&amp;lt;/&lt;/span&gt;&lt;span style=&quot;border-color: var(--border-color); color: rgb(120, 168, 214); font-weight: bold; font-size: 15px;&quot;&gt;option&lt;/span&gt;&lt;span style=&quot;border-color: var(--border-color); color: rgb(188, 212, 207); font-size: 15px;&quot;&gt;&amp;gt;&lt;/span&gt;&lt;/div&gt;&lt;div style=&quot;border-color: var(--border-color); color: rgb(245, 245, 245); font-family: Consolas, &amp;quot;Courier New&amp;quot;, monospace; font-size: 15px;&quot;&gt;&amp;nbsp; &amp;nbsp; &amp;nbsp; &amp;nbsp;&amp;nbsp;&lt;span style=&quot;border-color: var(--border-color); color: rgb(188, 212, 207); font-size: 15px;&quot;&gt;&amp;lt;&lt;/span&gt;&lt;span style=&quot;border-color: var(--border-color); color: rgb(120, 168, 214); font-weight: bold; font-size: 15px;&quot;&gt;option&lt;/span&gt;&amp;nbsp;&lt;span style=&quot;border-color: var(--border-color); color: rgb(188, 212, 207); font-size: 15px;&quot;&gt;value&lt;/span&gt;&lt;span style=&quot;border-color: var(--border-color); color: rgb(122, 218, 209); font-weight: bold; font-size: 15px;&quot;&gt;=&lt;/span&gt;&lt;span style=&quot;border-color: var(--border-color); color: rgb(122, 218, 209); font-size: 15px;&quot;&gt;&quot;text-orange&quot;&lt;/span&gt;&lt;span style=&quot;border-color: var(--border-color); color: rgb(188, 212, 207); font-size: 15px;&quot;&gt;&amp;gt;&lt;/span&gt;Orange&lt;span style=&quot;border-color: var(--border-color); color: rgb(188, 212, 207); font-size: 15px;&quot;&gt;&amp;lt;/&lt;/span&gt;&lt;span style=&quot;border-color: var(--border-color); color: rgb(120, 168, 214); font-weight: bold; font-size: 15px;&quot;&gt;option&lt;/span&gt;&lt;span style=&quot;border-color: var(--border-color); color: rgb(188, 212, 207); font-size: 15px;&quot;&gt;&amp;gt;&lt;/span&gt;&lt;/div&gt;&lt;div style=&quot;border-color: var(--border-color); color: rgb(245, 245, 245); font-family: Consolas, &amp;quot;Courier New&amp;quot;, monospace; font-size: 15px;&quot;&gt;&amp;nbsp; &amp;nbsp; &amp;nbsp;&amp;nbsp;&lt;span style=&quot;border-color: var(--border-color); color: rgb(188, 212, 207); font-size: 15px;&quot;&gt;&amp;lt;/&lt;/span&gt;&lt;span style=&quot;border-color: var(--border-color); color: rgb(120, 168, 214); font-weight: bold; font-size: 15px;&quot;&gt;select&lt;/span&gt;&lt;span style=&quot;border-color: var(--border-color); color: rgb(188, 212, 207); font-size: 15px;&quot;&gt;&amp;gt;&lt;/span&gt;&lt;/div&gt;&lt;div style=&quot;border-color: var(--border-color); font-size: 15px;&quot;&gt;&lt;font style=&quot;border-color: var(--border-color); font-size: 15px;&quot; face=&quot;Consolas, Courier New, monospace&quot; color=&quot;#f5f5f5&quot;&gt;&lt;span style=&quot;border-color: var(--border-color); font-size: 15px;&quot;&gt;&lt;br style=&quot;border-color: var(--border-color); font-size: 15px;&quot;&gt;&lt;/span&gt;&lt;/font&gt;&lt;/div&gt;&lt;div style=&quot;border-color: var(--border-color); color: rgb(245, 245, 245); font-family: Consolas, &amp;quot;Courier New&amp;quot;, monospace; font-size: 15px;&quot;&gt;&amp;nbsp; &amp;nbsp; &amp;nbsp;&amp;nbsp;&lt;span style=&quot;border-color: var(--border-color); color: rgb(188, 212, 207); font-size: 15px;&quot;&gt;&amp;lt;&lt;/span&gt;&lt;span style=&quot;border-color: var(--border-color); color: rgb(120, 168, 214); font-weight: bold; font-size: 15px;&quot;&gt;label&lt;/span&gt;&lt;span style=&quot;border-color: var(--border-color); color: rgb(188, 212, 207); font-size: 15px;&quot;&gt;&amp;gt;&lt;/span&gt;&lt;/div&gt;&lt;div style=&quot;border-color: var(--border-color); color: rgb(245, 245, 245); font-family: Consolas, &amp;quot;Courier New&amp;quot;, monospace; font-size: 15px;&quot;&gt;&amp;nbsp; &amp;nbsp; &amp;nbsp; &amp;nbsp; Circle Size&lt;/div&gt;&lt;div style=&quot;border-color: var(--border-color); color: rgb(245, 245, 245); font-family: Consolas, &amp;quot;Courier New&amp;quot;, monospace; font-size: 15px;&quot;&gt;&amp;nbsp; &amp;nbsp; &amp;nbsp; &amp;nbsp;&amp;nbsp;&lt;span style=&quot;border-color: var(--border-color); color: rgb(188, 212, 207); font-size: 15px;&quot;&gt;&amp;lt;&lt;/span&gt;&lt;span style=&quot;border-color: var(--border-color); color: rgb(120, 168, 214); font-weight: bold; font-size: 15px;&quot;&gt;input&lt;/span&gt;&amp;nbsp;&lt;span style=&quot;border-color: var(--border-color); color: rgb(188, 212, 207); font-size: 15px;&quot;&gt;type&lt;/span&gt;&lt;span style=&quot;border-color: var(--border-color); color: rgb(122, 218, 209); font-weight: bold; font-size: 15px;&quot;&gt;=&lt;/span&gt;&lt;span style=&quot;border-color: var(--border-color); color: rgb(122, 218, 209); font-size: 15px;&quot;&gt;&quot;number&quot;&lt;/span&gt;&amp;nbsp;&lt;span style=&quot;border-color: var(--border-color); color: rgb(188, 212, 207); font-size: 15px;&quot;&gt;v-model&lt;/span&gt;&lt;span style=&quot;border-color: var(--border-color); color: rgb(122, 218, 209); font-weight: bold; font-size: 15px;&quot;&gt;=&lt;/span&gt;&lt;span style=&quot;border-color: var(--border-color); color: rgb(122, 218, 209); font-size: 15px;&quot;&gt;&quot;&lt;/span&gt;&lt;span style=&quot;border-color: var(--border-color); color: rgb(133, 238, 167); font-size: 15px;&quot;&gt;size&lt;/span&gt;&lt;span style=&quot;border-color: var(--border-color); color: rgb(122, 218, 209); font-size: 15px;&quot;&gt;&quot;&lt;/span&gt;&amp;nbsp;&lt;span style=&quot;border-color: var(--border-color); color: rgb(188, 212, 207); font-size: 15px;&quot;&gt;/&amp;gt;&lt;/span&gt;&lt;/div&gt;&lt;div style=&quot;border-color: var(--border-color); color: rgb(245, 245, 245); font-family: Consolas, &amp;quot;Courier New&amp;quot;, monospace; font-size: 15px;&quot;&gt;&amp;nbsp; &amp;nbsp; &amp;nbsp;&amp;nbsp;&lt;span style=&quot;border-color: var(--border-color); color: rgb(188, 212, 207); font-size: 15px;&quot;&gt;&amp;lt;/&lt;/span&gt;&lt;span style=&quot;border-color: var(--border-color); color: rgb(120, 168, 214); font-weight: bold; font-size: 15px;&quot;&gt;label&lt;/span&gt;&lt;span style=&quot;border-color: var(--border-color); color: rgb(188, 212, 207); font-size: 15px;&quot;&gt;&amp;gt;&lt;/span&gt;&lt;/div&gt;&lt;br style=&quot;border-color: var(--border-color); font-size: 15px;&quot;&gt;&lt;div style=&quot;border-color: var(--border-color); color: rgb(245, 245, 245); font-family: Consolas, &amp;quot;Courier New&amp;quot;, monospace; font-size: 15px;&quot;&gt;&amp;nbsp; &amp;nbsp; &amp;nbsp;&amp;nbsp;&lt;span style=&quot;border-color: var(--border-color); color: rgb(188, 212, 207); font-size: 15px;&quot;&gt;&amp;lt;&lt;/span&gt;&lt;span style=&quot;border-color: var(--border-color); color: rgb(120, 168, 214); font-weight: bold; font-size: 15px;&quot;&gt;label&lt;/span&gt;&lt;span style=&quot;border-color: var(--border-color); color: rgb(188, 212, 207); font-size: 15px;&quot;&gt;&amp;gt;&lt;/span&gt;&lt;/div&gt;&lt;div style=&quot;border-color: var(--border-color); color: rgb(245, 245, 245); font-family: Consolas, &amp;quot;Courier New&amp;quot;, monospace; font-size: 15px;&quot;&gt;&amp;nbsp; &amp;nbsp; &amp;nbsp; &amp;nbsp; Circle Rotate&lt;/div&gt;&lt;div style=&quot;border-color: var(--border-color); color: rgb(245, 245, 245); font-family: Consolas, &amp;quot;Courier New&amp;quot;, monospace; font-size: 15px;&quot;&gt;&amp;nbsp; &amp;nbsp; &amp;nbsp; &amp;nbsp;&amp;nbsp;&lt;span style=&quot;border-color: var(--border-color); color: rgb(188, 212, 207); font-size: 15px;&quot;&gt;&amp;lt;&lt;/span&gt;&lt;span style=&quot;border-color: var(--border-color); color: rgb(120, 168, 214); font-weight: bold; font-size: 15px;&quot;&gt;input&lt;/span&gt;&amp;nbsp;&lt;span style=&quot;border-color: var(--border-color); color: rgb(188, 212, 207); font-size: 15px;&quot;&gt;type&lt;/span&gt;&lt;span style=&quot;border-color: var(--border-color); color: rgb(122, 218, 209); font-weight: bold; font-size: 15px;&quot;&gt;=&lt;/span&gt;&lt;span style=&quot;border-color: var(--border-color); color: rgb(122, 218, 209); font-size: 15px;&quot;&gt;&quot;number&quot;&lt;/span&gt;&amp;nbsp;&lt;span style=&quot;border-color: var(--border-color); color: rgb(188, 212, 207); font-size: 15px;&quot;&gt;v-model&lt;/span&gt;&lt;span style=&quot;border-color: var(--border-color); color: rgb(122, 218, 209); font-weight: bold; font-size: 15px;&quot;&gt;=&lt;/span&gt;&lt;span style=&quot;border-color: var(--border-color); color: rgb(122, 218, 209); font-size: 15px;&quot;&gt;&quot;&lt;/span&gt;&lt;span style=&quot;border-color: var(--border-color); color: rgb(133, 238, 167); font-size: 15px;&quot;&gt;angle&lt;/span&gt;&lt;span style=&quot;border-color: var(--border-color); color: rgb(122, 218, 209); font-size: 15px;&quot;&gt;&quot;&lt;/span&gt;&amp;nbsp;&lt;span style=&quot;border-color: var(--border-color); color: rgb(188, 212, 207); font-size: 15px;&quot;&gt;/&amp;gt;&lt;/span&gt;&lt;/div&gt;&lt;div style=&quot;border-color: var(--border-color); color: rgb(245, 245, 245); font-family: Consolas, &amp;quot;Courier New&amp;quot;, monospace; font-size: 15px;&quot;&gt;&amp;nbsp; &amp;nbsp; &amp;nbsp;&amp;nbsp;&lt;span style=&quot;border-color: var(--border-color); color: rgb(188, 212, 207); font-size: 15px;&quot;&gt;&amp;lt;/&lt;/span&gt;&lt;span style=&quot;border-color: var(--border-color); color: rgb(120, 168, 214); font-weight: bold; font-size: 15px;&quot;&gt;label&lt;/span&gt;&lt;span style=&quot;border-color: var(--border-color); color: rgb(188, 212, 207); font-size: 15px;&quot;&gt;&amp;gt;&lt;/span&gt;&lt;/div&gt;&lt;br style=&quot;border-color: var(--border-color); font-size: 15px;&quot;&gt;&lt;div style=&quot;border-color: var(--border-color); color: rgb(245, 245, 245); font-family: Consolas, &amp;quot;Courier New&amp;quot;, monospace; font-size: 15px;&quot;&gt;&amp;nbsp; &amp;nbsp; &amp;nbsp;&amp;nbsp;&lt;span style=&quot;border-color: var(--border-color); color: rgb(188, 212, 207); font-size: 15px;&quot;&gt;&amp;lt;&lt;/span&gt;&lt;span style=&quot;border-color: var(--border-color); color: rgb(120, 168, 214); font-weight: bold; font-size: 15px;&quot;&gt;div&lt;/span&gt;&lt;/div&gt;&lt;div style=&quot;border-color: var(--border-color); color: rgb(245, 245, 245); font-family: Consolas, &amp;quot;Courier New&amp;quot;, monospace; font-size: 15px;&quot;&gt;&amp;nbsp; &amp;nbsp; &amp;nbsp; &amp;nbsp;&amp;nbsp;&lt;span style=&quot;border-color: var(--border-color); color: rgb(188, 212, 207); font-size: 15px;&quot;&gt;class&lt;/span&gt;&lt;span style=&quot;border-color: var(--border-color); color: rgb(122, 218, 209); font-weight: bold; font-size: 15px;&quot;&gt;=&lt;/span&gt;&lt;span style=&quot;border-color: var(--border-color); color: rgb(122, 218, 209); font-size: 15px;&quot;&gt;&quot;circle&quot;&lt;/span&gt;&lt;/div&gt;&lt;div style=&quot;border-color: var(--border-color); color: rgb(245, 245, 245); font-family: Consolas, &amp;quot;Courier New&amp;quot;, monospace; font-size: 15px;&quot;&gt;&amp;nbsp; &amp;nbsp; &amp;nbsp; &amp;nbsp; :&lt;span style=&quot;border-color: var(--border-color); color: rgb(188, 212, 207); font-size: 15px;&quot;&gt;class&lt;/span&gt;&lt;span style=&quot;border-color: var(--border-color); color: rgb(122, 218, 209); font-weight: bold; font-size: 15px;&quot;&gt;=&lt;/span&gt;&lt;span style=&quot;border-color: var(--border-color); color: rgb(122, 218, 209); font-size: 15px;&quot;&gt;&quot;&lt;/span&gt;[&lt;span style=&quot;border-color: var(--border-color); color: rgb(133, 238, 167); font-size: 15px;&quot;&gt;circleClass&lt;/span&gt;,&amp;nbsp;&lt;span style=&quot;border-color: var(--border-color); color: rgb(133, 238, 167); font-size: 15px;&quot;&gt;textColor&lt;/span&gt;]&lt;span style=&quot;border-color: var(--border-color); color: rgb(122, 218, 209); font-size: 15px;&quot;&gt;&quot;&lt;/span&gt;&lt;/div&gt;&lt;div style=&quot;border-color: var(--border-color); color: rgb(245, 245, 245); font-family: Consolas, &amp;quot;Courier New&amp;quot;, monospace; font-size: 15px;&quot;&gt;&amp;nbsp; &amp;nbsp; &amp;nbsp; &amp;nbsp; :&lt;span style=&quot;border-color: var(--border-color); color: rgb(188, 212, 207); font-size: 15px;&quot;&gt;style&lt;/span&gt;&lt;span style=&quot;border-color: var(--border-color); color: rgb(122, 218, 209); font-weight: bold; font-size: 15px;&quot;&gt;=&lt;/span&gt;&lt;span style=&quot;border-color: var(--border-color); color: rgb(122, 218, 209); font-size: 15px;&quot;&gt;&quot;&lt;/span&gt;[&lt;span style=&quot;border-color: var(--border-color); color: rgb(133, 238, 167); font-size: 15px;&quot;&gt;circleSize&lt;/span&gt;,&amp;nbsp;&lt;span style=&quot;border-color: var(--border-color); color: rgb(133, 238, 167); font-size: 15px;&quot;&gt;circleAngle&lt;/span&gt;]&lt;span style=&quot;border-color: var(--border-color); color: rgb(122, 218, 209); font-size: 15px;&quot;&gt;&quot;&lt;/span&gt;&lt;/div&gt;&lt;div style=&quot;border-color: var(--border-color); color: rgb(245, 245, 245); font-family: Consolas, &amp;quot;Courier New&amp;quot;, monospace; font-size: 15px;&quot;&gt;&amp;nbsp; &amp;nbsp; &amp;nbsp;&amp;nbsp;&lt;span style=&quot;border-color: var(--border-color); color: rgb(188, 212, 207); font-size: 15px;&quot;&gt;&amp;gt;&lt;/span&gt;&lt;/div&gt;&lt;div style=&quot;border-color: var(--border-color); color: rgb(245, 245, 245); font-family: Consolas, &amp;quot;Courier New&amp;quot;, monospace; font-size: 15px;&quot;&gt;&amp;nbsp; &amp;nbsp; &amp;nbsp; &amp;nbsp; Hi!&lt;/div&gt;&lt;div style=&quot;border-color: var(--border-color); color: rgb(245, 245, 245); font-family: Consolas, &amp;quot;Courier New&amp;quot;, monospace; font-size: 15px;&quot;&gt;&amp;nbsp; &amp;nbsp; &amp;nbsp;&amp;nbsp;&lt;span style=&quot;border-color: var(--border-color); color: rgb(188, 212, 207); font-size: 15px;&quot;&gt;&amp;lt;/&lt;/span&gt;&lt;span style=&quot;border-color: var(--border-color); color: rgb(120, 168, 214); font-weight: bold; font-size: 15px;&quot;&gt;div&lt;/span&gt;&lt;span style=&quot;border-color: var(--border-color); color: rgb(188, 212, 207); font-size: 15px;&quot;&gt;&amp;gt;&lt;/span&gt;&lt;/div&gt;&lt;div style=&quot;border-color: var(--border-color); color: rgb(245, 245, 245); font-family: Consolas, &amp;quot;Courier New&amp;quot;, monospace; font-size: 15px;&quot;&gt;&amp;nbsp; &amp;nbsp;&amp;nbsp;&lt;span style=&quot;border-color: var(--border-color); color: rgb(188, 212, 207); font-size: 15px;&quot;&gt;&amp;lt;/&lt;/span&gt;&lt;span style=&quot;border-color: var(--border-color); color: rgb(120, 168, 214); font-weight: bold; font-size: 15px;&quot;&gt;div&lt;/span&gt;&lt;span style=&quot;border-color: var(--border-color); color: rgb(188, 212, 207); font-size: 15px;&quot;&gt;&amp;gt;&lt;/span&gt;&lt;/div&gt;&lt;br style=&quot;border-color: var(--border-color); font-size: 15px;&quot;&gt;&lt;div style=&quot;border-color: var(--border-color); color: rgb(245, 245, 245); font-family: Consolas, &amp;quot;Courier New&amp;quot;, monospace; font-size: 15px;&quot;&gt;&amp;nbsp; &amp;nbsp;&amp;nbsp;&lt;span style=&quot;border-color: var(--border-color); color: rgb(188, 212, 207); font-size: 15px;&quot;&gt;&amp;lt;&lt;/span&gt;&lt;span style=&quot;border-color: var(--border-color); color: rgb(120, 168, 214); font-weight: bold; font-size: 15px;&quot;&gt;script&lt;/span&gt;&amp;nbsp;&lt;span style=&quot;border-color: var(--border-color); color: rgb(188, 212, 207); font-size: 15px;&quot;&gt;src&lt;/span&gt;&lt;span style=&quot;border-color: var(--border-color); color: rgb(122, 218, 209); font-weight: bold; font-size: 15px;&quot;&gt;=&lt;/span&gt;&lt;span style=&quot;border-color: var(--border-color); color: rgb(122, 218, 209); font-size: 15px;&quot;&gt;&quot;./main.js&quot;&lt;/span&gt;&lt;span style=&quot;border-color: var(--border-color); color: rgb(188, 212, 207); font-size: 15px;&quot;&gt;&amp;gt;&amp;lt;/&lt;/span&gt;&lt;span style=&quot;border-color: var(--border-color); color: rgb(120, 168, 214); font-weight: bold; font-size: 15px;&quot;&gt;script&lt;/span&gt;&lt;span style=&quot;border-color: var(--border-color); color: rgb(188, 212, 207); font-size: 15px;&quot;&gt;&amp;gt;&lt;/span&gt;&lt;/div&gt;&lt;div style=&quot;border-color: var(--border-color); color: rgb(245, 245, 245); font-family: Consolas, &amp;quot;Courier New&amp;quot;, monospace; font-size: 15px;&quot;&gt;&amp;nbsp;&amp;nbsp;&lt;span style=&quot;border-color: var(--border-color); color: rgb(188, 212, 207); font-size: 15px;&quot;&gt;&amp;lt;/&lt;/span&gt;&lt;span style=&quot;border-color: var(--border-color); color: rgb(120, 168, 214); font-weight: bold; font-size: 15px;&quot;&gt;body&lt;/span&gt;&lt;span style=&quot;border-color: var(--border-color); color: rgb(188, 212, 207); font-size: 15px;&quot;&gt;&amp;gt;&lt;/span&gt;&lt;/div&gt;&lt;div style=&quot;border-color: var(--border-color); color: rgb(245, 245, 245); font-family: Consolas, &amp;quot;Courier New&amp;quot;, monospace; font-size: 15px;&quot;&gt;&lt;span style=&quot;border-color: var(--border-color); color: rgb(188, 212, 207); font-size: 15px;&quot;&gt;&amp;lt;/&lt;/span&gt;&lt;span style=&quot;border-color: var(--border-color); color: rgb(120, 168, 214); font-weight: bold; font-size: 15px;&quot;&gt;html&lt;/span&gt;&lt;span style=&quot;border-color: var(--border-color); color: rgb(188, 212, 207); font-size: 15px;&quot;&gt;&amp;gt;&lt;/span&gt;&lt;/div&gt;" style="rounded=0;whiteSpace=wrap;html=1;fillColor=#1c1e27;align=left;spacing=18;fontSize=15;" vertex="1" parent="1">
          <mxGeometry x="-400" y="-760" width="680" height="880" as="geometry" />
        </mxCell>
        <mxCell id="ajJ4fGMmNMzAooFR_enY-30" value="&lt;div style=&quot;border-color: var(--border-color); color: rgb(245, 245, 245); font-family: Consolas, &amp;quot;Courier New&amp;quot;, monospace;&quot;&gt;&lt;div style=&quot;border-color: var(--border-color);&quot;&gt;const&amp;nbsp;app&amp;nbsp;&lt;span style=&quot;border-color: var(--border-color); color: rgb(122, 218, 209); font-weight: bold;&quot;&gt;=&lt;/span&gt;&amp;nbsp;&lt;span style=&quot;border-color: var(--border-color); color: rgb(122, 218, 209);&quot;&gt;{&lt;/span&gt;&lt;/div&gt;&lt;div style=&quot;border-color: var(--border-color);&quot;&gt;&amp;nbsp;&amp;nbsp;&lt;span style=&quot;border-color: var(--border-color); color: rgb(133, 238, 167); font-weight: bold;&quot;&gt;data&lt;/span&gt;()&amp;nbsp;&lt;span style=&quot;border-color: var(--border-color); color: rgb(122, 218, 209);&quot;&gt;{&lt;/span&gt;&lt;/div&gt;&lt;div style=&quot;border-color: var(--border-color);&quot;&gt;&amp;nbsp; &amp;nbsp;&amp;nbsp;&lt;span style=&quot;border-color: var(--border-color); color: rgb(188, 212, 207); font-weight: bold;&quot;&gt;return&lt;/span&gt;&amp;nbsp;&lt;span style=&quot;border-color: var(--border-color); color: rgb(122, 218, 209);&quot;&gt;{&lt;/span&gt;&lt;/div&gt;&lt;div style=&quot;border-color: var(--border-color);&quot;&gt;&amp;nbsp; &amp;nbsp; &amp;nbsp;&amp;nbsp;&lt;span style=&quot;border-color: var(--border-color); color: rgb(120, 168, 214);&quot;&gt;isPurple&lt;/span&gt;&lt;span style=&quot;border-color: var(--border-color); color: rgb(122, 218, 209); font-weight: bold;&quot;&gt;:&lt;/span&gt;&amp;nbsp;&lt;span style=&quot;border-color: var(--border-color); color: rgb(122, 218, 209);&quot;&gt;false&lt;/span&gt;,&lt;/div&gt;&lt;div style=&quot;border-color: var(--border-color);&quot;&gt;&amp;nbsp; &amp;nbsp; &amp;nbsp;&amp;nbsp;&lt;span style=&quot;border-color: var(--border-color); color: rgb(120, 168, 214);&quot;&gt;textColor&lt;/span&gt;&lt;span style=&quot;border-color: var(--border-color); color: rgb(122, 218, 209); font-weight: bold;&quot;&gt;:&lt;/span&gt;&amp;nbsp;&lt;span style=&quot;border-color: var(--border-color); color: rgb(122, 218, 209);&quot;&gt;&quot;&quot;&lt;/span&gt;,&lt;/div&gt;&lt;div style=&quot;border-color: var(--border-color);&quot;&gt;&amp;nbsp; &amp;nbsp; &amp;nbsp;&amp;nbsp;&lt;span style=&quot;border-color: var(--border-color); color: rgb(120, 168, 214);&quot;&gt;size&lt;/span&gt;&lt;span style=&quot;border-color: var(--border-color); color: rgb(122, 218, 209); font-weight: bold;&quot;&gt;:&lt;/span&gt;&amp;nbsp;&lt;span style=&quot;border-color: var(--border-color); color: rgb(122, 218, 209); font-weight: bold;&quot;&gt;200&lt;/span&gt;,&lt;/div&gt;&lt;div style=&quot;border-color: var(--border-color);&quot;&gt;&amp;nbsp; &amp;nbsp; &amp;nbsp;&amp;nbsp;&lt;span style=&quot;border-color: var(--border-color); color: rgb(120, 168, 214);&quot;&gt;angle&lt;/span&gt;&lt;span style=&quot;border-color: var(--border-color); color: rgb(122, 218, 209); font-weight: bold;&quot;&gt;:&lt;/span&gt;&amp;nbsp;&lt;span style=&quot;border-color: var(--border-color); color: rgb(122, 218, 209); font-weight: bold;&quot;&gt;0&lt;/span&gt;,&lt;/div&gt;&lt;div style=&quot;border-color: var(--border-color);&quot;&gt;&amp;nbsp; &amp;nbsp;&amp;nbsp;&lt;span style=&quot;border-color: var(--border-color); color: rgb(122, 218, 209);&quot;&gt;}&lt;/span&gt;;&lt;/div&gt;&lt;div style=&quot;border-color: var(--border-color);&quot;&gt;&amp;nbsp;&amp;nbsp;&lt;span style=&quot;border-color: var(--border-color); color: rgb(122, 218, 209);&quot;&gt;}&lt;/span&gt;,&lt;/div&gt;&lt;br style=&quot;border-color: var(--border-color);&quot;&gt;&lt;div style=&quot;border-color: var(--border-color);&quot;&gt;&amp;nbsp;&amp;nbsp;&lt;span style=&quot;border-color: var(--border-color); color: rgb(120, 168, 214);&quot;&gt;computed&lt;/span&gt;&lt;span style=&quot;border-color: var(--border-color); color: rgb(122, 218, 209); font-weight: bold;&quot;&gt;:&lt;/span&gt;&amp;nbsp;&lt;span style=&quot;border-color: var(--border-color); color: rgb(122, 218, 209);&quot;&gt;{&lt;/span&gt;&lt;/div&gt;&lt;div style=&quot;border-color: var(--border-color);&quot;&gt;&amp;nbsp; &amp;nbsp;&amp;nbsp;&lt;span style=&quot;border-color: var(--border-color); color: rgb(133, 238, 167); font-weight: bold;&quot;&gt;circleClass&lt;/span&gt;()&amp;nbsp;&lt;span style=&quot;border-color: var(--border-color); color: rgb(122, 218, 209);&quot;&gt;{&lt;/span&gt;&lt;/div&gt;&lt;div style=&quot;border-color: var(--border-color);&quot;&gt;&amp;nbsp; &amp;nbsp; &amp;nbsp;&amp;nbsp;&lt;span style=&quot;border-color: var(--border-color); color: rgb(188, 212, 207); font-weight: bold;&quot;&gt;return&lt;/span&gt;&amp;nbsp;&lt;span style=&quot;border-color: var(--border-color); color: rgb(122, 218, 209);&quot;&gt;{&lt;/span&gt;&lt;/div&gt;&lt;div style=&quot;border-color: var(--border-color);&quot;&gt;&amp;nbsp; &amp;nbsp; &amp;nbsp; &amp;nbsp;&amp;nbsp;&lt;span style=&quot;border-color: var(--border-color); color: rgb(120, 168, 214);&quot;&gt;purple&lt;/span&gt;&lt;span style=&quot;border-color: var(--border-color); color: rgb(122, 218, 209); font-weight: bold;&quot;&gt;:&lt;/span&gt;&amp;nbsp;&lt;span style=&quot;border-color: var(--border-color); color: rgb(120, 168, 214);&quot;&gt;this&lt;/span&gt;.&lt;span style=&quot;border-color: var(--border-color); color: rgb(122, 218, 209); font-weight: bold;&quot;&gt;isPurple&lt;/span&gt;,&lt;/div&gt;&lt;div style=&quot;border-color: var(--border-color);&quot;&gt;&amp;nbsp; &amp;nbsp; &amp;nbsp;&amp;nbsp;&lt;span style=&quot;border-color: var(--border-color); color: rgb(122, 218, 209);&quot;&gt;}&lt;/span&gt;;&lt;/div&gt;&lt;div style=&quot;border-color: var(--border-color);&quot;&gt;&amp;nbsp; &amp;nbsp;&amp;nbsp;&lt;span style=&quot;border-color: var(--border-color); color: rgb(122, 218, 209);&quot;&gt;}&lt;/span&gt;,&lt;/div&gt;&lt;br style=&quot;border-color: var(--border-color);&quot;&gt;&lt;div style=&quot;border-color: var(--border-color);&quot;&gt;&amp;nbsp; &amp;nbsp;&amp;nbsp;&lt;span style=&quot;border-color: var(--border-color); color: rgb(133, 238, 167); font-weight: bold;&quot;&gt;circleSize&lt;/span&gt;()&amp;nbsp;&lt;span style=&quot;border-color: var(--border-color); color: rgb(122, 218, 209);&quot;&gt;{&lt;/span&gt;&lt;/div&gt;&lt;div style=&quot;border-color: var(--border-color);&quot;&gt;&amp;nbsp; &amp;nbsp; &amp;nbsp;&amp;nbsp;&lt;span style=&quot;border-color: var(--border-color); color: rgb(188, 212, 207); font-weight: bold;&quot;&gt;return&lt;/span&gt;&amp;nbsp;&lt;span style=&quot;border-color: var(--border-color); color: rgb(122, 218, 209);&quot;&gt;{&lt;/span&gt;&lt;/div&gt;&lt;div style=&quot;border-color: var(--border-color);&quot;&gt;&amp;nbsp; &amp;nbsp; &amp;nbsp; &amp;nbsp;&amp;nbsp;&lt;span style=&quot;border-color: var(--border-color); color: rgb(120, 168, 214);&quot;&gt;height&lt;/span&gt;&lt;span style=&quot;border-color: var(--border-color); color: rgb(122, 218, 209); font-weight: bold;&quot;&gt;:&lt;/span&gt;&amp;nbsp;&lt;span style=&quot;border-color: var(--border-color); color: rgb(122, 218, 209);&quot;&gt;`&lt;/span&gt;&lt;span style=&quot;border-color: var(--border-color); color: rgb(122, 218, 209);&quot;&gt;${&lt;/span&gt;&lt;span style=&quot;border-color: var(--border-color); color: rgb(120, 168, 214);&quot;&gt;this&lt;/span&gt;&lt;span style=&quot;border-color: var(--border-color); color: rgb(243, 243, 243);&quot;&gt;.&lt;/span&gt;&lt;span style=&quot;border-color: var(--border-color); color: rgb(122, 218, 209); font-weight: bold;&quot;&gt;size&lt;/span&gt;&lt;span style=&quot;border-color: var(--border-color); color: rgb(122, 218, 209);&quot;&gt;}&lt;/span&gt;&lt;span style=&quot;border-color: var(--border-color); color: rgb(122, 218, 209);&quot;&gt;px`&lt;/span&gt;,&lt;/div&gt;&lt;div style=&quot;border-color: var(--border-color);&quot;&gt;&amp;nbsp; &amp;nbsp; &amp;nbsp; &amp;nbsp;&amp;nbsp;&lt;span style=&quot;border-color: var(--border-color); color: rgb(120, 168, 214);&quot;&gt;width&lt;/span&gt;&lt;span style=&quot;border-color: var(--border-color); color: rgb(122, 218, 209); font-weight: bold;&quot;&gt;:&lt;/span&gt;&amp;nbsp;&lt;span style=&quot;border-color: var(--border-color); color: rgb(122, 218, 209);&quot;&gt;`&lt;/span&gt;&lt;span style=&quot;border-color: var(--border-color); color: rgb(122, 218, 209);&quot;&gt;${&lt;/span&gt;&lt;span style=&quot;border-color: var(--border-color); color: rgb(120, 168, 214);&quot;&gt;this&lt;/span&gt;&lt;span style=&quot;border-color: var(--border-color); color: rgb(243, 243, 243);&quot;&gt;.&lt;/span&gt;&lt;span style=&quot;border-color: var(--border-color); color: rgb(122, 218, 209); font-weight: bold;&quot;&gt;size&lt;/span&gt;&lt;span style=&quot;border-color: var(--border-color); color: rgb(122, 218, 209);&quot;&gt;}&lt;/span&gt;&lt;span style=&quot;border-color: var(--border-color); color: rgb(122, 218, 209);&quot;&gt;px`&lt;/span&gt;,&lt;/div&gt;&lt;div style=&quot;border-color: var(--border-color);&quot;&gt;&amp;nbsp; &amp;nbsp; &amp;nbsp; &amp;nbsp;&amp;nbsp;&lt;span style=&quot;border-color: var(--border-color); color: rgb(120, 168, 214);&quot;&gt;lineHeight&lt;/span&gt;&lt;span style=&quot;border-color: var(--border-color); color: rgb(122, 218, 209); font-weight: bold;&quot;&gt;:&lt;/span&gt;&amp;nbsp;&lt;span style=&quot;border-color: var(--border-color); color: rgb(122, 218, 209);&quot;&gt;`&lt;/span&gt;&lt;span style=&quot;border-color: var(--border-color); color: rgb(122, 218, 209);&quot;&gt;${&lt;/span&gt;&lt;span style=&quot;border-color: var(--border-color); color: rgb(120, 168, 214);&quot;&gt;this&lt;/span&gt;&lt;span style=&quot;border-color: var(--border-color); color: rgb(243, 243, 243);&quot;&gt;.&lt;/span&gt;&lt;span style=&quot;border-color: var(--border-color); color: rgb(122, 218, 209); font-weight: bold;&quot;&gt;size&lt;/span&gt;&lt;span style=&quot;border-color: var(--border-color); color: rgb(122, 218, 209);&quot;&gt;}&lt;/span&gt;&lt;span style=&quot;border-color: var(--border-color); color: rgb(122, 218, 209);&quot;&gt;px`&lt;/span&gt;,&lt;/div&gt;&lt;div style=&quot;border-color: var(--border-color);&quot;&gt;&amp;nbsp; &amp;nbsp; &amp;nbsp;&amp;nbsp;&lt;span style=&quot;border-color: var(--border-color); color: rgb(122, 218, 209);&quot;&gt;}&lt;/span&gt;;&lt;/div&gt;&lt;div style=&quot;border-color: var(--border-color);&quot;&gt;&amp;nbsp; &amp;nbsp;&amp;nbsp;&lt;span style=&quot;border-color: var(--border-color); color: rgb(122, 218, 209);&quot;&gt;}&lt;/span&gt;,&lt;/div&gt;&lt;br style=&quot;border-color: var(--border-color);&quot;&gt;&lt;div style=&quot;border-color: var(--border-color);&quot;&gt;&amp;nbsp; &amp;nbsp;&amp;nbsp;&lt;span style=&quot;border-color: var(--border-color); color: rgb(133, 238, 167); font-weight: bold;&quot;&gt;circleAngle&lt;/span&gt;()&amp;nbsp;&lt;span style=&quot;border-color: var(--border-color); color: rgb(122, 218, 209);&quot;&gt;{&lt;/span&gt;&lt;/div&gt;&lt;div style=&quot;border-color: var(--border-color);&quot;&gt;&amp;nbsp; &amp;nbsp; &amp;nbsp;&amp;nbsp;&lt;span style=&quot;border-color: var(--border-color); color: rgb(188, 212, 207); font-weight: bold;&quot;&gt;return&lt;/span&gt;&amp;nbsp;&lt;span style=&quot;border-color: var(--border-color); color: rgb(122, 218, 209);&quot;&gt;{&lt;/span&gt;&lt;/div&gt;&lt;div style=&quot;border-color: var(--border-color);&quot;&gt;&amp;nbsp; &amp;nbsp; &amp;nbsp; &amp;nbsp;&amp;nbsp;&lt;span style=&quot;border-color: var(--border-color); color: rgb(120, 168, 214);&quot;&gt;transform&lt;/span&gt;&lt;span style=&quot;border-color: var(--border-color); color: rgb(122, 218, 209); font-weight: bold;&quot;&gt;:&lt;/span&gt;&amp;nbsp;&lt;span style=&quot;border-color: var(--border-color); color: rgb(122, 218, 209);&quot;&gt;`rotate(&lt;/span&gt;&lt;span style=&quot;border-color: var(--border-color); color: rgb(122, 218, 209);&quot;&gt;${&lt;/span&gt;&lt;span style=&quot;border-color: var(--border-color); color: rgb(120, 168, 214);&quot;&gt;this&lt;/span&gt;&lt;span style=&quot;border-color: var(--border-color); color: rgb(243, 243, 243);&quot;&gt;.&lt;/span&gt;&lt;span style=&quot;border-color: var(--border-color); color: rgb(122, 218, 209); font-weight: bold;&quot;&gt;angle&lt;/span&gt;&lt;span style=&quot;border-color: var(--border-color); color: rgb(122, 218, 209);&quot;&gt;}&lt;/span&gt;&lt;span style=&quot;border-color: var(--border-color); color: rgb(122, 218, 209);&quot;&gt;deg)`&lt;/span&gt;,&lt;/div&gt;&lt;div style=&quot;border-color: var(--border-color);&quot;&gt;&amp;nbsp; &amp;nbsp; &amp;nbsp;&amp;nbsp;&lt;span style=&quot;border-color: var(--border-color); color: rgb(122, 218, 209);&quot;&gt;}&lt;/span&gt;;&lt;/div&gt;&lt;div style=&quot;border-color: var(--border-color);&quot;&gt;&amp;nbsp; &amp;nbsp;&amp;nbsp;&lt;span style=&quot;border-color: var(--border-color); color: rgb(122, 218, 209);&quot;&gt;}&lt;/span&gt;,&lt;/div&gt;&lt;div style=&quot;border-color: var(--border-color);&quot;&gt;&amp;nbsp;&amp;nbsp;&lt;span style=&quot;border-color: var(--border-color); color: rgb(122, 218, 209);&quot;&gt;}&lt;/span&gt;,&lt;/div&gt;&lt;div style=&quot;border-color: var(--border-color);&quot;&gt;&lt;span style=&quot;border-color: var(--border-color); color: rgb(122, 218, 209);&quot;&gt;}&lt;/span&gt;;&lt;/div&gt;&lt;br style=&quot;border-color: var(--border-color);&quot;&gt;&lt;div style=&quot;border-color: var(--border-color);&quot;&gt;&lt;span style=&quot;border-color: var(--border-color); color: rgb(120, 168, 214);&quot;&gt;Vue&lt;/span&gt;.&lt;span style=&quot;border-color: var(--border-color); color: rgb(133, 238, 167); font-weight: bold;&quot;&gt;createApp&lt;/span&gt;(&lt;span style=&quot;border-color: var(--border-color); color: rgb(133, 238, 167);&quot;&gt;app&lt;/span&gt;).&lt;span style=&quot;border-color: var(--border-color); color: rgb(133, 238, 167); font-weight: bold;&quot;&gt;mount&lt;/span&gt;(&lt;span style=&quot;border-color: var(--border-color); color: rgb(122, 218, 209);&quot;&gt;&quot;#app&quot;&lt;/span&gt;);&lt;/div&gt;&lt;/div&gt;" style="rounded=0;whiteSpace=wrap;html=1;fillColor=#1c1e27;align=left;spacing=18;fontSize=15;" vertex="1" parent="1">
          <mxGeometry x="-400" y="200" width="680" height="640" as="geometry" />
        </mxCell>
        <mxCell id="ajJ4fGMmNMzAooFR_enY-31" value="&lt;div style=&quot;color: rgb(245, 245, 245); background-color: rgb(28, 30, 39); font-family: Consolas, &amp;quot;Courier New&amp;quot;, monospace; font-size: 14px; line-height: 19px;&quot;&gt;&lt;div style=&quot;&quot;&gt;&lt;br&gt;&lt;/div&gt;&lt;/div&gt;" style="text;html=1;align=left;verticalAlign=middle;resizable=0;points=[];autosize=1;strokeColor=none;fillColor=none;" vertex="1" parent="1">
          <mxGeometry x="890" y="388" width="20" height="30" as="geometry" />
        </mxCell>
        <mxCell id="ajJ4fGMmNMzAooFR_enY-32" value="&lt;b&gt;&lt;font style=&quot;font-size: 15px;&quot;&gt;main.js&lt;/font&gt;&lt;/b&gt;" style="text;html=1;align=center;verticalAlign=middle;resizable=0;points=[];autosize=1;strokeColor=none;fillColor=none;" vertex="1" parent="1">
          <mxGeometry x="-100" y="170" width="80" height="30" as="geometry" />
        </mxCell>
        <mxCell id="ajJ4fGMmNMzAooFR_enY-34" value="&lt;div style=&quot;border-color: var(--border-color); color: rgb(245, 245, 245); font-family: Consolas, &amp;quot;Courier New&amp;quot;, monospace; font-size: 15px;&quot;&gt;&lt;div style=&quot;border-color: var(--border-color);&quot;&gt;&lt;div style=&quot;border-color: var(--border-color);&quot;&gt;body {&lt;/div&gt;&lt;div style=&quot;border-color: var(--border-color);&quot;&gt;&amp;nbsp;&amp;nbsp;font-size&lt;span style=&quot;border-color: var(--border-color); color: rgb(122, 218, 209); font-weight: bold;&quot;&gt;:&lt;/span&gt;&amp;nbsp;&lt;span style=&quot;border-color: var(--border-color); color: rgb(122, 218, 209); font-weight: bold;&quot;&gt;20&lt;/span&gt;&lt;span style=&quot;border-color: var(--border-color); color: rgb(133, 238, 167); font-weight: bold;&quot;&gt;px&lt;/span&gt;;&lt;/div&gt;&lt;div style=&quot;border-color: var(--border-color);&quot;&gt;&amp;nbsp;&amp;nbsp;&lt;span style=&quot;border-color: var(--border-color); color: rgb(242, 242, 242);&quot;&gt;font-family&lt;/span&gt;&lt;span style=&quot;border-color: var(--border-color); color: rgb(122, 218, 209); font-weight: bold;&quot;&gt;:&lt;/span&gt;&amp;nbsp;&lt;span style=&quot;border-color: var(--border-color); color: rgb(133, 238, 167); font-weight: bold;&quot;&gt;sans-serif&lt;/span&gt;;&lt;/div&gt;&lt;div style=&quot;border-color: var(--border-color);&quot;&gt;}&lt;/div&gt;&lt;div style=&quot;border-color: var(--border-color);&quot;&gt;&lt;span style=&quot;border-color: var(--border-color); color: rgb(120, 168, 214); font-weight: bold;&quot;&gt;label&lt;/span&gt;&amp;nbsp;{&lt;/div&gt;&lt;div style=&quot;border-color: var(--border-color);&quot;&gt;&amp;nbsp;&amp;nbsp;&lt;span style=&quot;border-color: var(--border-color); color: rgb(242, 242, 242);&quot;&gt;margin-bottom&lt;/span&gt;&lt;span style=&quot;border-color: var(--border-color); color: rgb(122, 218, 209); font-weight: bold;&quot;&gt;:&lt;/span&gt;&amp;nbsp;&lt;span style=&quot;border-color: var(--border-color); color: rgb(122, 218, 209); font-weight: bold;&quot;&gt;20&lt;/span&gt;&lt;span style=&quot;border-color: var(--border-color); color: rgb(133, 238, 167); font-weight: bold;&quot;&gt;px&lt;/span&gt;;&lt;/div&gt;&lt;div style=&quot;border-color: var(--border-color);&quot;&gt;&amp;nbsp;&amp;nbsp;&lt;span style=&quot;border-color: var(--border-color); color: rgb(242, 242, 242);&quot;&gt;font-size&lt;/span&gt;&lt;span style=&quot;border-color: var(--border-color); color: rgb(122, 218, 209); font-weight: bold;&quot;&gt;:&lt;/span&gt;&amp;nbsp;&lt;span style=&quot;border-color: var(--border-color); color: rgb(122, 218, 209); font-weight: bold;&quot;&gt;20&lt;/span&gt;&lt;span style=&quot;border-color: var(--border-color); color: rgb(133, 238, 167); font-weight: bold;&quot;&gt;px&lt;/span&gt;;&lt;/div&gt;&lt;div style=&quot;border-color: var(--border-color);&quot;&gt;&amp;nbsp;&amp;nbsp;&lt;span style=&quot;border-color: var(--border-color); color: rgb(242, 242, 242);&quot;&gt;display&lt;/span&gt;&lt;span style=&quot;border-color: var(--border-color); color: rgb(122, 218, 209); font-weight: bold;&quot;&gt;:&lt;/span&gt;&amp;nbsp;&lt;span style=&quot;border-color: var(--border-color); color: rgb(120, 168, 214); font-weight: bold;&quot;&gt;block&lt;/span&gt;;&lt;/div&gt;&lt;div style=&quot;border-color: var(--border-color);&quot;&gt;}&lt;/div&gt;&lt;div style=&quot;border-color: var(--border-color);&quot;&gt;&lt;span style=&quot;border-color: var(--border-color); color: rgb(120, 168, 214); font-weight: bold;&quot;&gt;select&lt;/span&gt;&amp;nbsp;{&lt;/div&gt;&lt;div style=&quot;border-color: var(--border-color);&quot;&gt;&amp;nbsp;&amp;nbsp;&lt;span style=&quot;border-color: var(--border-color); color: rgb(242, 242, 242);&quot;&gt;font-size&lt;/span&gt;&lt;span style=&quot;border-color: var(--border-color); color: rgb(122, 218, 209); font-weight: bold;&quot;&gt;:&lt;/span&gt;&amp;nbsp;&lt;span style=&quot;border-color: var(--border-color); color: rgb(122, 218, 209); font-weight: bold;&quot;&gt;20&lt;/span&gt;&lt;span style=&quot;border-color: var(--border-color); color: rgb(133, 238, 167); font-weight: bold;&quot;&gt;px&lt;/span&gt;;&lt;/div&gt;&lt;div style=&quot;border-color: var(--border-color);&quot;&gt;&amp;nbsp;&amp;nbsp;&lt;span style=&quot;border-color: var(--border-color); color: rgb(242, 242, 242);&quot;&gt;margin-bottom&lt;/span&gt;&lt;span style=&quot;border-color: var(--border-color); color: rgb(122, 218, 209); font-weight: bold;&quot;&gt;:&lt;/span&gt;&amp;nbsp;&lt;span style=&quot;border-color: var(--border-color); color: rgb(122, 218, 209); font-weight: bold;&quot;&gt;20&lt;/span&gt;&lt;span style=&quot;border-color: var(--border-color); color: rgb(133, 238, 167); font-weight: bold;&quot;&gt;px&lt;/span&gt;;&lt;/div&gt;&lt;div style=&quot;border-color: var(--border-color);&quot;&gt;}&lt;/div&gt;&lt;div style=&quot;border-color: var(--border-color);&quot;&gt;&lt;span style=&quot;border-color: var(--border-color); color: rgb(120, 168, 214); font-weight: bold;&quot;&gt;input&lt;/span&gt;[&lt;span style=&quot;border-color: var(--border-color); color: rgb(188, 212, 207);&quot;&gt;type&lt;/span&gt;&lt;span style=&quot;border-color: var(--border-color); color: rgb(122, 218, 209); font-weight: bold;&quot;&gt;=&lt;/span&gt;&lt;span style=&quot;border-color: var(--border-color); color: rgb(122, 218, 209);&quot;&gt;&quot;number&quot;&lt;/span&gt;] {&lt;/div&gt;&lt;div style=&quot;border-color: var(--border-color);&quot;&gt;&amp;nbsp;&amp;nbsp;&lt;span style=&quot;border-color: var(--border-color); color: rgb(242, 242, 242);&quot;&gt;display&lt;/span&gt;&lt;span style=&quot;border-color: var(--border-color); color: rgb(122, 218, 209); font-weight: bold;&quot;&gt;:&lt;/span&gt;&amp;nbsp;&lt;span style=&quot;border-color: var(--border-color); color: rgb(120, 168, 214); font-weight: bold;&quot;&gt;block&lt;/span&gt;;&lt;/div&gt;&lt;div style=&quot;border-color: var(--border-color);&quot;&gt;&amp;nbsp;&amp;nbsp;&lt;span style=&quot;border-color: var(--border-color); color: rgb(242, 242, 242);&quot;&gt;font-size&lt;/span&gt;&lt;span style=&quot;border-color: var(--border-color); color: rgb(122, 218, 209); font-weight: bold;&quot;&gt;:&lt;/span&gt;&amp;nbsp;&lt;span style=&quot;border-color: var(--border-color); color: rgb(122, 218, 209); font-weight: bold;&quot;&gt;20&lt;/span&gt;&lt;span style=&quot;border-color: var(--border-color); color: rgb(133, 238, 167); font-weight: bold;&quot;&gt;px&lt;/span&gt;;&lt;/div&gt;&lt;div style=&quot;border-color: var(--border-color);&quot;&gt;&amp;nbsp;&amp;nbsp;&lt;span style=&quot;border-color: var(--border-color); color: rgb(242, 242, 242);&quot;&gt;margin-bottom&lt;/span&gt;&lt;span style=&quot;border-color: var(--border-color); color: rgb(122, 218, 209); font-weight: bold;&quot;&gt;:&lt;/span&gt;&amp;nbsp;&lt;span style=&quot;border-color: var(--border-color); color: rgb(122, 218, 209); font-weight: bold;&quot;&gt;20&lt;/span&gt;&lt;span style=&quot;border-color: var(--border-color); color: rgb(133, 238, 167); font-weight: bold;&quot;&gt;px&lt;/span&gt;;&lt;/div&gt;&lt;div style=&quot;border-color: var(--border-color);&quot;&gt;}&lt;/div&gt;&lt;div style=&quot;border-color: var(--border-color);&quot;&gt;&lt;span style=&quot;border-color: var(--border-color); color: rgb(188, 212, 207);&quot;&gt;.circle&lt;/span&gt;&amp;nbsp;{&lt;/div&gt;&lt;div style=&quot;border-color: var(--border-color);&quot;&gt;&amp;nbsp;&amp;nbsp;&lt;span style=&quot;border-color: var(--border-color); color: rgb(242, 242, 242);&quot;&gt;width&lt;/span&gt;&lt;span style=&quot;border-color: var(--border-color); color: rgb(122, 218, 209); font-weight: bold;&quot;&gt;:&lt;/span&gt;&amp;nbsp;&lt;span style=&quot;border-color: var(--border-color); color: rgb(122, 218, 209); font-weight: bold;&quot;&gt;150&lt;/span&gt;&lt;span style=&quot;border-color: var(--border-color); color: rgb(133, 238, 167); font-weight: bold;&quot;&gt;px&lt;/span&gt;;&lt;/div&gt;&lt;div style=&quot;border-color: var(--border-color);&quot;&gt;&amp;nbsp;&amp;nbsp;&lt;span style=&quot;border-color: var(--border-color); color: rgb(242, 242, 242);&quot;&gt;height&lt;/span&gt;&lt;span style=&quot;border-color: var(--border-color); color: rgb(122, 218, 209); font-weight: bold;&quot;&gt;:&lt;/span&gt;&amp;nbsp;&lt;span style=&quot;border-color: var(--border-color); color: rgb(122, 218, 209); font-weight: bold;&quot;&gt;150&lt;/span&gt;&lt;span style=&quot;border-color: var(--border-color); color: rgb(133, 238, 167); font-weight: bold;&quot;&gt;px&lt;/span&gt;;&lt;/div&gt;&lt;div style=&quot;border-color: var(--border-color);&quot;&gt;&amp;nbsp;&amp;nbsp;&lt;span style=&quot;border-color: var(--border-color); color: rgb(242, 242, 242);&quot;&gt;border-radius&lt;/span&gt;&lt;span style=&quot;border-color: var(--border-color); color: rgb(122, 218, 209); font-weight: bold;&quot;&gt;:&lt;/span&gt;&amp;nbsp;&lt;span style=&quot;border-color: var(--border-color); color: rgb(122, 218, 209); font-weight: bold;&quot;&gt;100&lt;/span&gt;&lt;span style=&quot;border-color: var(--border-color); color: rgb(133, 238, 167); font-weight: bold;&quot;&gt;%&lt;/span&gt;;&lt;/div&gt;&lt;div style=&quot;border-color: var(--border-color);&quot;&gt;&amp;nbsp;&amp;nbsp;&lt;span style=&quot;border-color: var(--border-color); color: rgb(242, 242, 242);&quot;&gt;background-color&lt;/span&gt;&lt;span style=&quot;border-color: var(--border-color); color: rgb(122, 218, 209); font-weight: bold;&quot;&gt;:&lt;/span&gt;&amp;nbsp;&lt;span style=&quot;border-color: var(--border-color); color: rgb(122, 218, 209); font-weight: bold;&quot;&gt;#45d619&lt;/span&gt;;&lt;/div&gt;&lt;div style=&quot;border-color: var(--border-color);&quot;&gt;&amp;nbsp;&amp;nbsp;&lt;span style=&quot;border-color: var(--border-color); color: rgb(242, 242, 242);&quot;&gt;text-align&lt;/span&gt;&lt;span style=&quot;border-color: var(--border-color); color: rgb(122, 218, 209); font-weight: bold;&quot;&gt;:&lt;/span&gt;&amp;nbsp;&lt;span style=&quot;border-color: var(--border-color); color: rgb(120, 168, 214); font-weight: bold;&quot;&gt;center&lt;/span&gt;;&lt;/div&gt;&lt;div style=&quot;border-color: var(--border-color);&quot;&gt;&amp;nbsp;&amp;nbsp;&lt;span style=&quot;border-color: var(--border-color); color: rgb(242, 242, 242);&quot;&gt;color&lt;/span&gt;&lt;span style=&quot;border-color: var(--border-color); color: rgb(122, 218, 209); font-weight: bold;&quot;&gt;:&lt;/span&gt;&amp;nbsp;&lt;span style=&quot;border-color: var(--border-color); color: rgb(122, 218, 209); font-weight: bold;&quot;&gt;#fff&lt;/span&gt;;&lt;/div&gt;&lt;div style=&quot;border-color: var(--border-color);&quot;&gt;&amp;nbsp;&amp;nbsp;&lt;span style=&quot;border-color: var(--border-color); color: rgb(242, 242, 242);&quot;&gt;line-height&lt;/span&gt;&lt;span style=&quot;border-color: var(--border-color); color: rgb(122, 218, 209); font-weight: bold;&quot;&gt;:&lt;/span&gt;&amp;nbsp;&lt;span style=&quot;border-color: var(--border-color); color: rgb(122, 218, 209); font-weight: bold;&quot;&gt;150&lt;/span&gt;&lt;span style=&quot;border-color: var(--border-color); color: rgb(133, 238, 167); font-weight: bold;&quot;&gt;px&lt;/span&gt;;&lt;/div&gt;&lt;div style=&quot;border-color: var(--border-color);&quot;&gt;&amp;nbsp;&amp;nbsp;&lt;span style=&quot;border-color: var(--border-color); color: rgb(242, 242, 242);&quot;&gt;font-size&lt;/span&gt;&lt;span style=&quot;border-color: var(--border-color); color: rgb(122, 218, 209); font-weight: bold;&quot;&gt;:&lt;/span&gt;&amp;nbsp;&lt;span style=&quot;border-color: var(--border-color); color: rgb(122, 218, 209); font-weight: bold;&quot;&gt;32&lt;/span&gt;&lt;span style=&quot;border-color: var(--border-color); color: rgb(133, 238, 167); font-weight: bold;&quot;&gt;px&lt;/span&gt;;&lt;/div&gt;&lt;div style=&quot;border-color: var(--border-color);&quot;&gt;&amp;nbsp;&amp;nbsp;&lt;span style=&quot;border-color: var(--border-color); color: rgb(242, 242, 242);&quot;&gt;font-weight&lt;/span&gt;&lt;span style=&quot;border-color: var(--border-color); color: rgb(122, 218, 209); font-weight: bold;&quot;&gt;:&lt;/span&gt;&amp;nbsp;&lt;span style=&quot;border-color: var(--border-color); color: rgb(120, 168, 214); font-weight: bold;&quot;&gt;bold&lt;/span&gt;;&lt;/div&gt;&lt;div style=&quot;border-color: var(--border-color);&quot;&gt;}&lt;/div&gt;&lt;br style=&quot;border-color: var(--border-color);&quot;&gt;&lt;div style=&quot;border-color: var(--border-color);&quot;&gt;&lt;span style=&quot;border-color: var(--border-color); color: rgb(188, 212, 207);&quot;&gt;.purple&lt;/span&gt;&amp;nbsp;{&lt;/div&gt;&lt;div style=&quot;border-color: var(--border-color);&quot;&gt;&amp;nbsp;&amp;nbsp;&lt;span style=&quot;border-color: var(--border-color); color: rgb(242, 242, 242);&quot;&gt;background-color&lt;/span&gt;&lt;span style=&quot;border-color: var(--border-color); color: rgb(122, 218, 209); font-weight: bold;&quot;&gt;:&lt;/span&gt;&amp;nbsp;&lt;span style=&quot;border-color: var(--border-color); color: rgb(122, 218, 209); font-weight: bold;&quot;&gt;#767dea&lt;/span&gt;;&lt;/div&gt;&lt;div style=&quot;border-color: var(--border-color);&quot;&gt;}&lt;/div&gt;&lt;div style=&quot;border-color: var(--border-color);&quot;&gt;&lt;span style=&quot;border-color: var(--border-color); color: rgb(188, 212, 207);&quot;&gt;.text-black&lt;/span&gt;&amp;nbsp;{&lt;/div&gt;&lt;div style=&quot;border-color: var(--border-color);&quot;&gt;&amp;nbsp;&amp;nbsp;&lt;span style=&quot;border-color: var(--border-color); color: rgb(242, 242, 242);&quot;&gt;color&lt;/span&gt;&lt;span style=&quot;border-color: var(--border-color); color: rgb(122, 218, 209); font-weight: bold;&quot;&gt;:&lt;/span&gt;&amp;nbsp;&lt;span style=&quot;border-color: var(--border-color); color: rgb(122, 218, 209); font-weight: bold;&quot;&gt;#424242&lt;/span&gt;;&lt;/div&gt;&lt;div style=&quot;border-color: var(--border-color);&quot;&gt;}&lt;/div&gt;&lt;div style=&quot;border-color: var(--border-color);&quot;&gt;&lt;span style=&quot;border-color: var(--border-color); color: rgb(188, 212, 207);&quot;&gt;.text-orange&lt;/span&gt;&amp;nbsp;{&lt;/div&gt;&lt;div style=&quot;border-color: var(--border-color);&quot;&gt;&amp;nbsp;&amp;nbsp;&lt;span style=&quot;border-color: var(--border-color); color: rgb(242, 242, 242);&quot;&gt;color&lt;/span&gt;&lt;span style=&quot;border-color: var(--border-color); color: rgb(122, 218, 209); font-weight: bold;&quot;&gt;:&lt;/span&gt;&amp;nbsp;&lt;span style=&quot;border-color: var(--border-color); color: rgb(122, 218, 209); font-weight: bold;&quot;&gt;#ffc26f&lt;/span&gt;;&lt;/div&gt;&lt;div style=&quot;border-color: var(--border-color);&quot;&gt;}&lt;/div&gt;&lt;/div&gt;&lt;/div&gt;" style="rounded=0;whiteSpace=wrap;html=1;fillColor=#1c1e27;align=left;spacing=18;fontSize=15;" vertex="1" parent="1">
          <mxGeometry x="-400" y="920" width="680" height="760" as="geometry" />
        </mxCell>
        <mxCell id="ajJ4fGMmNMzAooFR_enY-35" value="&lt;div style=&quot;color: rgb(245, 245, 245); background-color: rgb(28, 30, 39); font-family: Consolas, &amp;quot;Courier New&amp;quot;, monospace; font-size: 14px; line-height: 19px;&quot;&gt;&lt;div&gt;&lt;br&gt;&lt;/div&gt;&lt;/div&gt;" style="text;html=1;align=left;verticalAlign=middle;resizable=0;points=[];autosize=1;strokeColor=none;fillColor=none;" vertex="1" parent="1">
          <mxGeometry x="880" y="898" width="20" height="30" as="geometry" />
        </mxCell>
        <mxCell id="ajJ4fGMmNMzAooFR_enY-36" value="&lt;b&gt;&lt;font style=&quot;font-size: 15px;&quot;&gt;style.css&lt;/font&gt;&lt;/b&gt;" style="text;html=1;align=center;verticalAlign=middle;resizable=0;points=[];autosize=1;strokeColor=none;fillColor=none;" vertex="1" parent="1">
          <mxGeometry x="-105" y="890" width="90" height="30" as="geometry" />
        </mxCell>
        <mxCell id="ajJ4fGMmNMzAooFR_enY-37" value="&lt;div style=&quot;border-color: var(--border-color); color: rgb(245, 245, 245); font-family: Consolas, &amp;quot;Courier New&amp;quot;, monospace; font-size: 15px;&quot;&gt;&lt;div style=&quot;border-color: var(--border-color); font-size: 14px;&quot;&gt;&amp;lt;!DOCTYPE&amp;nbsp;&lt;span style=&quot;border-color: var(--border-color); color: rgb(188, 212, 207);&quot;&gt;html&amp;gt;&lt;/span&gt;&lt;/div&gt;&lt;div style=&quot;border-color: var(--border-color); font-size: 14px;&quot;&gt;&lt;span style=&quot;border-color: var(--border-color); color: rgb(188, 212, 207);&quot;&gt;&amp;lt;&lt;/span&gt;&lt;span style=&quot;border-color: var(--border-color); color: rgb(120, 168, 214); font-weight: bold;&quot;&gt;html&lt;/span&gt;&amp;nbsp;&lt;span style=&quot;border-color: var(--border-color); color: rgb(188, 212, 207);&quot;&gt;lang&lt;/span&gt;&lt;span style=&quot;border-color: var(--border-color); color: rgb(122, 218, 209); font-weight: bold;&quot;&gt;=&lt;/span&gt;&lt;span style=&quot;border-color: var(--border-color); color: rgb(122, 218, 209);&quot;&gt;&quot;en&quot;&lt;/span&gt;&lt;span style=&quot;border-color: var(--border-color); color: rgb(188, 212, 207);&quot;&gt;&amp;gt;&lt;/span&gt;&lt;/div&gt;&lt;div style=&quot;border-color: var(--border-color); font-size: 14px;&quot;&gt;&amp;nbsp;&amp;nbsp;&lt;span style=&quot;border-color: var(--border-color); color: rgb(188, 212, 207);&quot;&gt;&amp;lt;&lt;/span&gt;&lt;span style=&quot;border-color: var(--border-color); color: rgb(120, 168, 214); font-weight: bold;&quot;&gt;head&lt;/span&gt;&lt;span style=&quot;border-color: var(--border-color); color: rgb(188, 212, 207);&quot;&gt;&amp;gt;&lt;/span&gt;&lt;/div&gt;&lt;div style=&quot;border-color: var(--border-color); font-size: 14px;&quot;&gt;&amp;nbsp; &amp;nbsp;&amp;nbsp;&lt;span style=&quot;border-color: var(--border-color); color: rgb(188, 212, 207);&quot;&gt;&amp;lt;&lt;/span&gt;&lt;span style=&quot;border-color: var(--border-color); color: rgb(120, 168, 214); font-weight: bold;&quot;&gt;meta&lt;/span&gt;&amp;nbsp;&lt;span style=&quot;border-color: var(--border-color); color: rgb(188, 212, 207);&quot;&gt;charset&lt;/span&gt;&lt;span style=&quot;border-color: var(--border-color); color: rgb(122, 218, 209); font-weight: bold;&quot;&gt;=&lt;/span&gt;&lt;span style=&quot;border-color: var(--border-color); color: rgb(122, 218, 209);&quot;&gt;&quot;UTF-8&quot;&lt;/span&gt;&lt;span style=&quot;border-color: var(--border-color); color: rgb(188, 212, 207);&quot;&gt;&amp;gt;&lt;/span&gt;&lt;/div&gt;&lt;div style=&quot;border-color: var(--border-color); font-size: 14px;&quot;&gt;&amp;nbsp; &amp;nbsp;&amp;nbsp;&lt;span style=&quot;border-color: var(--border-color); color: rgb(188, 212, 207);&quot;&gt;&amp;lt;&lt;/span&gt;&lt;span style=&quot;border-color: var(--border-color); color: rgb(120, 168, 214); font-weight: bold;&quot;&gt;link&lt;/span&gt;&amp;nbsp;&lt;span style=&quot;border-color: var(--border-color); color: rgb(188, 212, 207);&quot;&gt;rel&lt;/span&gt;&lt;span style=&quot;border-color: var(--border-color); color: rgb(122, 218, 209); font-weight: bold;&quot;&gt;=&lt;/span&gt;&lt;span style=&quot;border-color: var(--border-color); color: rgb(122, 218, 209);&quot;&gt;&quot;icon&quot;&lt;/span&gt;&amp;nbsp;&lt;span style=&quot;border-color: var(--border-color); color: rgb(188, 212, 207);&quot;&gt;href&lt;/span&gt;&lt;span style=&quot;border-color: var(--border-color); color: rgb(122, 218, 209); font-weight: bold;&quot;&gt;=&lt;/span&gt;&lt;span style=&quot;border-color: var(--border-color); color: rgb(122, 218, 209);&quot;&gt;&quot;/favicon.ico&quot;&lt;/span&gt;&lt;span style=&quot;border-color: var(--border-color); color: rgb(188, 212, 207);&quot;&gt;&amp;gt;&lt;/span&gt;&lt;/div&gt;&lt;div style=&quot;border-color: var(--border-color); font-size: 14px;&quot;&gt;&amp;nbsp; &amp;nbsp;&amp;nbsp;&lt;span style=&quot;border-color: var(--border-color); color: rgb(188, 212, 207);&quot;&gt;&amp;lt;&lt;/span&gt;&lt;span style=&quot;border-color: var(--border-color); color: rgb(120, 168, 214); font-weight: bold;&quot;&gt;meta&lt;/span&gt;&amp;nbsp;&lt;span style=&quot;border-color: var(--border-color); color: rgb(188, 212, 207);&quot;&gt;name&lt;/span&gt;&lt;span style=&quot;border-color: var(--border-color); color: rgb(122, 218, 209); font-weight: bold;&quot;&gt;=&lt;/span&gt;&lt;span style=&quot;border-color: var(--border-color); color: rgb(122, 218, 209);&quot;&gt;&quot;viewport&quot;&lt;/span&gt;&amp;nbsp;&lt;span style=&quot;border-color: var(--border-color); color: rgb(188, 212, 207);&quot;&gt;content&lt;/span&gt;&lt;span style=&quot;border-color: var(--border-color); color: rgb(122, 218, 209); font-weight: bold;&quot;&gt;=&lt;/span&gt;&lt;span style=&quot;border-color: var(--border-color); color: rgb(122, 218, 209);&quot;&gt;&quot;width=device-width, initial-scale=1.0&quot;&lt;/span&gt;&lt;span style=&quot;border-color: var(--border-color); color: rgb(188, 212, 207);&quot;&gt;&amp;gt;&lt;/span&gt;&lt;/div&gt;&lt;div style=&quot;border-color: var(--border-color); font-size: 14px;&quot;&gt;&amp;nbsp; &amp;nbsp;&amp;nbsp;&lt;span style=&quot;border-color: var(--border-color); color: rgb(188, 212, 207);&quot;&gt;&amp;lt;&lt;/span&gt;&lt;span style=&quot;border-color: var(--border-color); color: rgb(120, 168, 214); font-weight: bold;&quot;&gt;title&lt;/span&gt;&lt;span style=&quot;border-color: var(--border-color); color: rgb(188, 212, 207);&quot;&gt;&amp;gt;&lt;/span&gt;Vite App&lt;span style=&quot;border-color: var(--border-color); color: rgb(188, 212, 207);&quot;&gt;&amp;lt;/&lt;/span&gt;&lt;span style=&quot;border-color: var(--border-color); color: rgb(120, 168, 214); font-weight: bold;&quot;&gt;title&lt;/span&gt;&lt;span style=&quot;border-color: var(--border-color); color: rgb(188, 212, 207);&quot;&gt;&amp;gt;&lt;/span&gt;&lt;/div&gt;&lt;div style=&quot;border-color: var(--border-color); font-size: 14px;&quot;&gt;&amp;nbsp;&amp;nbsp;&lt;span style=&quot;border-color: var(--border-color); color: rgb(188, 212, 207);&quot;&gt;&amp;lt;/&lt;/span&gt;&lt;span style=&quot;border-color: var(--border-color); color: rgb(120, 168, 214); font-weight: bold;&quot;&gt;head&lt;/span&gt;&lt;span style=&quot;border-color: var(--border-color); color: rgb(188, 212, 207);&quot;&gt;&amp;gt;&lt;/span&gt;&lt;/div&gt;&lt;div style=&quot;border-color: var(--border-color); font-size: 14px;&quot;&gt;&amp;nbsp;&amp;nbsp;&lt;span style=&quot;border-color: var(--border-color); color: rgb(188, 212, 207);&quot;&gt;&amp;lt;&lt;/span&gt;&lt;span style=&quot;border-color: var(--border-color); color: rgb(120, 168, 214); font-weight: bold;&quot;&gt;body&lt;/span&gt;&lt;span style=&quot;border-color: var(--border-color); color: rgb(188, 212, 207);&quot;&gt;&amp;gt;&lt;/span&gt;&lt;/div&gt;&lt;div style=&quot;border-color: var(--border-color); font-size: 14px;&quot;&gt;&amp;nbsp; &amp;nbsp;&amp;nbsp;&lt;span style=&quot;border-color: var(--border-color); color: rgb(188, 212, 207);&quot;&gt;&amp;lt;&lt;/span&gt;&lt;span style=&quot;border-color: var(--border-color); color: rgb(120, 168, 214); font-weight: bold;&quot;&gt;div&lt;/span&gt;&amp;nbsp;&lt;span style=&quot;border-color: var(--border-color); color: rgb(188, 212, 207);&quot;&gt;id&lt;/span&gt;&lt;span style=&quot;border-color: var(--border-color); color: rgb(122, 218, 209); font-weight: bold;&quot;&gt;=&lt;/span&gt;&lt;span style=&quot;border-color: var(--border-color); color: rgb(122, 218, 209);&quot;&gt;&quot;app&quot;&lt;/span&gt;&lt;span style=&quot;border-color: var(--border-color); color: rgb(188, 212, 207);&quot;&gt;&amp;gt;&amp;lt;/&lt;/span&gt;&lt;span style=&quot;border-color: var(--border-color); color: rgb(120, 168, 214); font-weight: bold;&quot;&gt;div&lt;/span&gt;&lt;span style=&quot;border-color: var(--border-color); color: rgb(188, 212, 207);&quot;&gt;&amp;gt;&lt;/span&gt;&lt;/div&gt;&lt;div style=&quot;border-color: var(--border-color); font-size: 14px;&quot;&gt;&amp;nbsp; &amp;nbsp;&amp;nbsp;&lt;span style=&quot;border-color: var(--border-color); color: rgb(188, 212, 207);&quot;&gt;&amp;lt;&lt;/span&gt;&lt;span style=&quot;border-color: var(--border-color); color: rgb(120, 168, 214); font-weight: bold;&quot;&gt;script&lt;/span&gt;&amp;nbsp;&lt;span style=&quot;border-color: var(--border-color); color: rgb(188, 212, 207);&quot;&gt;type&lt;/span&gt;&lt;span style=&quot;border-color: var(--border-color); color: rgb(122, 218, 209); font-weight: bold;&quot;&gt;=&lt;/span&gt;&lt;span style=&quot;border-color: var(--border-color); color: rgb(122, 218, 209);&quot;&gt;&quot;module&quot;&lt;/span&gt;&amp;nbsp;&lt;span style=&quot;border-color: var(--border-color); color: rgb(188, 212, 207);&quot;&gt;src&lt;/span&gt;&lt;span style=&quot;border-color: var(--border-color); color: rgb(122, 218, 209); font-weight: bold;&quot;&gt;=&lt;/span&gt;&lt;span style=&quot;border-color: var(--border-color); color: rgb(122, 218, 209);&quot;&gt;&quot;/src/main.js&quot;&lt;/span&gt;&lt;span style=&quot;border-color: var(--border-color); color: rgb(188, 212, 207);&quot;&gt;&amp;gt;&amp;lt;/&lt;/span&gt;&lt;span style=&quot;border-color: var(--border-color); color: rgb(120, 168, 214); font-weight: bold;&quot;&gt;script&lt;/span&gt;&lt;span style=&quot;border-color: var(--border-color); color: rgb(188, 212, 207);&quot;&gt;&amp;gt;&lt;/span&gt;&lt;/div&gt;&lt;div style=&quot;border-color: var(--border-color); font-size: 14px;&quot;&gt;&amp;nbsp;&amp;nbsp;&lt;span style=&quot;border-color: var(--border-color); color: rgb(188, 212, 207);&quot;&gt;&amp;lt;/&lt;/span&gt;&lt;span style=&quot;border-color: var(--border-color); color: rgb(120, 168, 214); font-weight: bold;&quot;&gt;body&lt;/span&gt;&lt;span style=&quot;border-color: var(--border-color); color: rgb(188, 212, 207);&quot;&gt;&amp;gt;&lt;/span&gt;&lt;/div&gt;&lt;div style=&quot;border-color: var(--border-color); font-size: 14px;&quot;&gt;&lt;span style=&quot;border-color: var(--border-color); color: rgb(188, 212, 207);&quot;&gt;&amp;lt;/&lt;/span&gt;&lt;span style=&quot;border-color: var(--border-color); color: rgb(120, 168, 214); font-weight: bold;&quot;&gt;html&lt;/span&gt;&lt;span style=&quot;border-color: var(--border-color); color: rgb(188, 212, 207);&quot;&gt;&amp;gt;&lt;/span&gt;&lt;/div&gt;&lt;/div&gt;" style="rounded=0;whiteSpace=wrap;html=1;fillColor=#1c1e27;align=left;spacing=18;fontSize=15;" vertex="1" parent="1">
          <mxGeometry x="400" y="-760" width="680" height="280" as="geometry" />
        </mxCell>
        <mxCell id="ajJ4fGMmNMzAooFR_enY-38" value="&lt;b&gt;&lt;font style=&quot;font-size: 15px;&quot;&gt;index.html&lt;/font&gt;&lt;/b&gt;" style="text;html=1;align=center;verticalAlign=middle;resizable=0;points=[];autosize=1;strokeColor=none;fillColor=none;" vertex="1" parent="1">
          <mxGeometry x="690" y="-790" width="100" height="30" as="geometry" />
        </mxCell>
        <mxCell id="ajJ4fGMmNMzAooFR_enY-41" value="&lt;div style=&quot;border-color: var(--border-color); color: rgb(245, 245, 245); font-family: Consolas, &amp;quot;Courier New&amp;quot;, monospace; font-size: 15px;&quot;&gt;&lt;div style=&quot;border-color: var(--border-color);&quot;&gt;&lt;div style=&quot;border-color: var(--border-color);&quot;&gt;import&amp;nbsp;{&amp;nbsp;&lt;span style=&quot;border-color: var(--border-color); color: rgb(133, 238, 167);&quot;&gt;createApp&lt;/span&gt;&amp;nbsp;&lt;span style=&quot;border-color: var(--border-color); color: rgb(122, 218, 209);&quot;&gt;}&lt;/span&gt;&amp;nbsp;&lt;span style=&quot;border-color: var(--border-color); color: rgb(188, 212, 207); font-weight: bold;&quot;&gt;from&lt;/span&gt;&amp;nbsp;&lt;span style=&quot;border-color: var(--border-color); color: rgb(122, 218, 209);&quot;&gt;&quot;vue&quot;&lt;/span&gt;;&lt;/div&gt;&lt;div style=&quot;border-color: var(--border-color);&quot;&gt;&lt;span style=&quot;border-color: var(--border-color); color: rgb(188, 212, 207); font-weight: bold;&quot;&gt;import&lt;/span&gt;&amp;nbsp;&lt;span style=&quot;border-color: var(--border-color); color: rgb(133, 238, 167);&quot;&gt;App&lt;/span&gt;&amp;nbsp;&lt;span style=&quot;border-color: var(--border-color); color: rgb(188, 212, 207); font-weight: bold;&quot;&gt;from&lt;/span&gt;&amp;nbsp;&lt;span style=&quot;border-color: var(--border-color); color: rgb(122, 218, 209);&quot;&gt;&quot;./App.vue&quot;&lt;/span&gt;;&lt;/div&gt;&lt;br style=&quot;border-color: var(--border-color);&quot;&gt;&lt;div style=&quot;border-color: var(--border-color);&quot;&gt;&lt;span style=&quot;border-color: var(--border-color); color: rgb(133, 238, 167); font-weight: bold;&quot;&gt;createApp&lt;/span&gt;(&lt;span style=&quot;border-color: var(--border-color); color: rgb(133, 238, 167);&quot;&gt;App&lt;/span&gt;).&lt;span style=&quot;border-color: var(--border-color); color: rgb(133, 238, 167); font-weight: bold;&quot;&gt;mount&lt;/span&gt;(&lt;span style=&quot;border-color: var(--border-color); color: rgb(122, 218, 209);&quot;&gt;&quot;#app&quot;&lt;/span&gt;);&lt;/div&gt;&lt;/div&gt;&lt;/div&gt;" style="rounded=0;whiteSpace=wrap;html=1;fillColor=#1c1e27;align=left;spacing=18;fontSize=15;" vertex="1" parent="1">
          <mxGeometry x="400" y="-420" width="680" height="120" as="geometry" />
        </mxCell>
        <mxCell id="ajJ4fGMmNMzAooFR_enY-42" value="&lt;b&gt;&lt;font style=&quot;font-size: 15px;&quot;&gt;main.js&lt;/font&gt;&lt;/b&gt;" style="text;html=1;align=center;verticalAlign=middle;resizable=0;points=[];autosize=1;strokeColor=none;fillColor=none;" vertex="1" parent="1">
          <mxGeometry x="700" y="-450" width="80" height="30" as="geometry" />
        </mxCell>
        <mxCell id="ajJ4fGMmNMzAooFR_enY-46" value="&lt;div style=&quot;border-color: var(--border-color); color: rgb(245, 245, 245); font-family: Consolas, &amp;quot;Courier New&amp;quot;, monospace; font-size: 15px;&quot;&gt;&lt;div style=&quot;border-color: var(--border-color);&quot;&gt;&lt;div style=&quot;border-color: var(--border-color);&quot;&gt;&lt;div style=&quot;border-color: var(--border-color);&quot;&gt;&amp;lt;template&lt;span style=&quot;border-color: var(--border-color); color: rgb(188, 212, 207);&quot;&gt;&amp;gt;&lt;/span&gt;&lt;/div&gt;&lt;div style=&quot;border-color: var(--border-color);&quot;&gt;&amp;nbsp;&amp;nbsp;&lt;span style=&quot;border-color: var(--border-color); color: rgb(188, 212, 207);&quot;&gt;&amp;lt;&lt;/span&gt;&lt;span style=&quot;border-color: var(--border-color); color: rgb(120, 168, 214); font-weight: bold;&quot;&gt;div&lt;/span&gt;&amp;nbsp;&lt;span style=&quot;border-color: var(--border-color); color: rgb(188, 212, 207);&quot;&gt;id&lt;/span&gt;&lt;span style=&quot;border-color: var(--border-color); color: rgb(122, 218, 209); font-weight: bold;&quot;&gt;=&lt;/span&gt;&lt;span style=&quot;border-color: var(--border-color); color: rgb(122, 218, 209);&quot;&gt;&quot;app&quot;&lt;/span&gt;&lt;span style=&quot;border-color: var(--border-color); color: rgb(188, 212, 207);&quot;&gt;&amp;gt;&lt;/span&gt;&lt;/div&gt;&lt;div style=&quot;border-color: var(--border-color);&quot;&gt;&amp;nbsp; &amp;nbsp;&amp;nbsp;&lt;span style=&quot;border-color: var(--border-color); color: rgb(188, 212, 207);&quot;&gt;&amp;lt;&lt;/span&gt;&lt;span style=&quot;border-color: var(--border-color); color: rgb(120, 168, 214); font-weight: bold;&quot;&gt;label&lt;/span&gt;&lt;span style=&quot;border-color: var(--border-color); color: rgb(188, 212, 207);&quot;&gt;&amp;gt;&lt;/span&gt;&lt;/div&gt;&lt;div style=&quot;border-color: var(--border-color);&quot;&gt;&amp;nbsp; &amp;nbsp; &amp;nbsp; Purple&lt;/div&gt;&lt;div style=&quot;border-color: var(--border-color);&quot;&gt;&amp;nbsp; &amp;nbsp; &amp;nbsp;&amp;nbsp;&lt;span style=&quot;border-color: var(--border-color); color: rgb(188, 212, 207);&quot;&gt;&amp;lt;&lt;/span&gt;&lt;span style=&quot;border-color: var(--border-color); color: rgb(120, 168, 214); font-weight: bold;&quot;&gt;input&lt;/span&gt;&amp;nbsp;&lt;span style=&quot;border-color: var(--border-color); color: rgb(188, 212, 207);&quot;&gt;type&lt;/span&gt;&lt;span style=&quot;border-color: var(--border-color); color: rgb(122, 218, 209); font-weight: bold;&quot;&gt;=&lt;/span&gt;&lt;span style=&quot;border-color: var(--border-color); color: rgb(122, 218, 209);&quot;&gt;&quot;checkbox&quot;&lt;/span&gt;&amp;nbsp;&lt;span style=&quot;border-color: var(--border-color); color: rgb(188, 212, 207);&quot;&gt;v-model&lt;/span&gt;&lt;span style=&quot;border-color: var(--border-color); color: rgb(122, 218, 209); font-weight: bold;&quot;&gt;=&lt;/span&gt;&lt;span style=&quot;border-color: var(--border-color); color: rgb(122, 218, 209);&quot;&gt;&quot;&lt;/span&gt;&lt;span style=&quot;border-color: var(--border-color); color: rgb(133, 238, 167);&quot;&gt;isPurple&lt;/span&gt;&lt;span style=&quot;border-color: var(--border-color); color: rgb(122, 218, 209);&quot;&gt;&quot;&lt;/span&gt;&amp;nbsp;&lt;span style=&quot;border-color: var(--border-color); color: rgb(188, 212, 207);&quot;&gt;/&amp;gt;&lt;/span&gt;&lt;/div&gt;&lt;div style=&quot;border-color: var(--border-color);&quot;&gt;&amp;nbsp; &amp;nbsp;&amp;nbsp;&lt;span style=&quot;border-color: var(--border-color); color: rgb(188, 212, 207);&quot;&gt;&amp;lt;/&lt;/span&gt;&lt;span style=&quot;border-color: var(--border-color); color: rgb(120, 168, 214); font-weight: bold;&quot;&gt;label&lt;/span&gt;&lt;span style=&quot;border-color: var(--border-color); color: rgb(188, 212, 207);&quot;&gt;&amp;gt;&lt;/span&gt;&lt;/div&gt;&lt;br style=&quot;border-color: var(--border-color);&quot;&gt;&lt;div style=&quot;border-color: var(--border-color);&quot;&gt;&amp;nbsp; &amp;nbsp;&amp;nbsp;&lt;span style=&quot;border-color: var(--border-color); color: rgb(188, 212, 207);&quot;&gt;&amp;lt;&lt;/span&gt;&lt;span style=&quot;border-color: var(--border-color); color: rgb(120, 168, 214); font-weight: bold;&quot;&gt;select&lt;/span&gt;&amp;nbsp;&lt;span style=&quot;border-color: var(--border-color); color: rgb(188, 212, 207);&quot;&gt;v-model&lt;/span&gt;&lt;span style=&quot;border-color: var(--border-color); color: rgb(122, 218, 209); font-weight: bold;&quot;&gt;=&lt;/span&gt;&lt;span style=&quot;border-color: var(--border-color); color: rgb(122, 218, 209);&quot;&gt;&quot;&lt;/span&gt;&lt;span style=&quot;border-color: var(--border-color); color: rgb(133, 238, 167);&quot;&gt;textColor&lt;/span&gt;&lt;span style=&quot;border-color: var(--border-color); color: rgb(122, 218, 209);&quot;&gt;&quot;&lt;/span&gt;&lt;span style=&quot;border-color: var(--border-color); color: rgb(188, 212, 207);&quot;&gt;&amp;gt;&lt;/span&gt;&lt;/div&gt;&lt;div style=&quot;border-color: var(--border-color);&quot;&gt;&amp;nbsp; &amp;nbsp; &amp;nbsp;&amp;nbsp;&lt;span style=&quot;border-color: var(--border-color); color: rgb(188, 212, 207);&quot;&gt;&amp;lt;&lt;/span&gt;&lt;span style=&quot;border-color: var(--border-color); color: rgb(120, 168, 214); font-weight: bold;&quot;&gt;option&lt;/span&gt;&amp;nbsp;&lt;span style=&quot;border-color: var(--border-color); color: rgb(188, 212, 207);&quot;&gt;value&lt;/span&gt;&lt;span style=&quot;border-color: var(--border-color); color: rgb(122, 218, 209); font-weight: bold;&quot;&gt;=&lt;/span&gt;&lt;span style=&quot;border-color: var(--border-color); color: rgb(122, 218, 209);&quot;&gt;&quot;&quot;&lt;/span&gt;&lt;span style=&quot;border-color: var(--border-color); color: rgb(188, 212, 207);&quot;&gt;&amp;gt;&lt;/span&gt;White&lt;span style=&quot;border-color: var(--border-color); color: rgb(188, 212, 207);&quot;&gt;&amp;lt;/&lt;/span&gt;&lt;span style=&quot;border-color: var(--border-color); color: rgb(120, 168, 214); font-weight: bold;&quot;&gt;option&lt;/span&gt;&lt;span style=&quot;border-color: var(--border-color); color: rgb(188, 212, 207);&quot;&gt;&amp;gt;&lt;/span&gt;&lt;/div&gt;&lt;div style=&quot;border-color: var(--border-color);&quot;&gt;&amp;nbsp; &amp;nbsp; &amp;nbsp;&amp;nbsp;&lt;span style=&quot;border-color: var(--border-color); color: rgb(188, 212, 207);&quot;&gt;&amp;lt;&lt;/span&gt;&lt;span style=&quot;border-color: var(--border-color); color: rgb(120, 168, 214); font-weight: bold;&quot;&gt;option&lt;/span&gt;&amp;nbsp;&lt;span style=&quot;border-color: var(--border-color); color: rgb(188, 212, 207);&quot;&gt;value&lt;/span&gt;&lt;span style=&quot;border-color: var(--border-color); color: rgb(122, 218, 209); font-weight: bold;&quot;&gt;=&lt;/span&gt;&lt;span style=&quot;border-color: var(--border-color); color: rgb(122, 218, 209);&quot;&gt;&quot;text-black&quot;&lt;/span&gt;&lt;span style=&quot;border-color: var(--border-color); color: rgb(188, 212, 207);&quot;&gt;&amp;gt;&lt;/span&gt;Black&lt;span style=&quot;border-color: var(--border-color); color: rgb(188, 212, 207);&quot;&gt;&amp;lt;/&lt;/span&gt;&lt;span style=&quot;border-color: var(--border-color); color: rgb(120, 168, 214); font-weight: bold;&quot;&gt;option&lt;/span&gt;&lt;span style=&quot;border-color: var(--border-color); color: rgb(188, 212, 207);&quot;&gt;&amp;gt;&lt;/span&gt;&lt;/div&gt;&lt;div style=&quot;border-color: var(--border-color);&quot;&gt;&amp;nbsp; &amp;nbsp; &amp;nbsp;&amp;nbsp;&lt;span style=&quot;border-color: var(--border-color); color: rgb(188, 212, 207);&quot;&gt;&amp;lt;&lt;/span&gt;&lt;span style=&quot;border-color: var(--border-color); color: rgb(120, 168, 214); font-weight: bold;&quot;&gt;option&lt;/span&gt;&amp;nbsp;&lt;span style=&quot;border-color: var(--border-color); color: rgb(188, 212, 207);&quot;&gt;value&lt;/span&gt;&lt;span style=&quot;border-color: var(--border-color); color: rgb(122, 218, 209); font-weight: bold;&quot;&gt;=&lt;/span&gt;&lt;span style=&quot;border-color: var(--border-color); color: rgb(122, 218, 209);&quot;&gt;&quot;text-orange&quot;&lt;/span&gt;&lt;span style=&quot;border-color: var(--border-color); color: rgb(188, 212, 207);&quot;&gt;&amp;gt;&lt;/span&gt;Orange&lt;span style=&quot;border-color: var(--border-color); color: rgb(188, 212, 207);&quot;&gt;&amp;lt;/&lt;/span&gt;&lt;span style=&quot;border-color: var(--border-color); color: rgb(120, 168, 214); font-weight: bold;&quot;&gt;option&lt;/span&gt;&lt;span style=&quot;border-color: var(--border-color); color: rgb(188, 212, 207);&quot;&gt;&amp;gt;&lt;/span&gt;&lt;/div&gt;&lt;div style=&quot;border-color: var(--border-color);&quot;&gt;&amp;nbsp; &amp;nbsp;&amp;nbsp;&lt;span style=&quot;border-color: var(--border-color); color: rgb(188, 212, 207);&quot;&gt;&amp;lt;/&lt;/span&gt;&lt;span style=&quot;border-color: var(--border-color); color: rgb(120, 168, 214); font-weight: bold;&quot;&gt;select&lt;/span&gt;&lt;span style=&quot;border-color: var(--border-color); color: rgb(188, 212, 207);&quot;&gt;&amp;gt;&lt;/span&gt;&lt;/div&gt;&lt;br style=&quot;border-color: var(--border-color);&quot;&gt;&lt;div style=&quot;border-color: var(--border-color);&quot;&gt;&amp;nbsp; &amp;nbsp;&amp;nbsp;&lt;span style=&quot;border-color: var(--border-color); color: rgb(188, 212, 207);&quot;&gt;&amp;lt;&lt;/span&gt;&lt;span style=&quot;border-color: var(--border-color); color: rgb(120, 168, 214); font-weight: bold;&quot;&gt;label&lt;/span&gt;&lt;span style=&quot;border-color: var(--border-color); color: rgb(188, 212, 207);&quot;&gt;&amp;gt;&lt;/span&gt;&lt;/div&gt;&lt;div style=&quot;border-color: var(--border-color);&quot;&gt;&amp;nbsp; &amp;nbsp; &amp;nbsp; Circle Size&lt;/div&gt;&lt;div style=&quot;border-color: var(--border-color);&quot;&gt;&amp;nbsp; &amp;nbsp; &amp;nbsp;&amp;nbsp;&lt;span style=&quot;border-color: var(--border-color); color: rgb(188, 212, 207);&quot;&gt;&amp;lt;&lt;/span&gt;&lt;span style=&quot;border-color: var(--border-color); color: rgb(120, 168, 214); font-weight: bold;&quot;&gt;input&lt;/span&gt;&amp;nbsp;&lt;span style=&quot;border-color: var(--border-color); color: rgb(188, 212, 207);&quot;&gt;type&lt;/span&gt;&lt;span style=&quot;border-color: var(--border-color); color: rgb(122, 218, 209); font-weight: bold;&quot;&gt;=&lt;/span&gt;&lt;span style=&quot;border-color: var(--border-color); color: rgb(122, 218, 209);&quot;&gt;&quot;number&quot;&lt;/span&gt;&amp;nbsp;&lt;span style=&quot;border-color: var(--border-color); color: rgb(188, 212, 207);&quot;&gt;v-model&lt;/span&gt;&lt;span style=&quot;border-color: var(--border-color); color: rgb(122, 218, 209); font-weight: bold;&quot;&gt;=&lt;/span&gt;&lt;span style=&quot;border-color: var(--border-color); color: rgb(122, 218, 209);&quot;&gt;&quot;&lt;/span&gt;&lt;span style=&quot;border-color: var(--border-color); color: rgb(133, 238, 167);&quot;&gt;size&lt;/span&gt;&lt;span style=&quot;border-color: var(--border-color); color: rgb(122, 218, 209);&quot;&gt;&quot;&lt;/span&gt;&amp;nbsp;&lt;span style=&quot;border-color: var(--border-color); color: rgb(188, 212, 207);&quot;&gt;/&amp;gt;&lt;/span&gt;&lt;/div&gt;&lt;div style=&quot;border-color: var(--border-color);&quot;&gt;&amp;nbsp; &amp;nbsp;&amp;nbsp;&lt;span style=&quot;border-color: var(--border-color); color: rgb(188, 212, 207);&quot;&gt;&amp;lt;/&lt;/span&gt;&lt;span style=&quot;border-color: var(--border-color); color: rgb(120, 168, 214); font-weight: bold;&quot;&gt;label&lt;/span&gt;&lt;span style=&quot;border-color: var(--border-color); color: rgb(188, 212, 207);&quot;&gt;&amp;gt;&lt;/span&gt;&lt;/div&gt;&lt;br style=&quot;border-color: var(--border-color);&quot;&gt;&lt;div style=&quot;border-color: var(--border-color);&quot;&gt;&amp;nbsp; &amp;nbsp;&amp;nbsp;&lt;span style=&quot;border-color: var(--border-color); color: rgb(188, 212, 207);&quot;&gt;&amp;lt;&lt;/span&gt;&lt;span style=&quot;border-color: var(--border-color); color: rgb(120, 168, 214); font-weight: bold;&quot;&gt;label&lt;/span&gt;&lt;span style=&quot;border-color: var(--border-color); color: rgb(188, 212, 207);&quot;&gt;&amp;gt;&lt;/span&gt;&lt;/div&gt;&lt;div style=&quot;border-color: var(--border-color);&quot;&gt;&amp;nbsp; &amp;nbsp; &amp;nbsp; Circle Rotate&lt;/div&gt;&lt;div style=&quot;border-color: var(--border-color);&quot;&gt;&amp;nbsp; &amp;nbsp; &amp;nbsp;&amp;nbsp;&lt;span style=&quot;border-color: var(--border-color); color: rgb(188, 212, 207);&quot;&gt;&amp;lt;&lt;/span&gt;&lt;span style=&quot;border-color: var(--border-color); color: rgb(120, 168, 214); font-weight: bold;&quot;&gt;input&lt;/span&gt;&amp;nbsp;&lt;span style=&quot;border-color: var(--border-color); color: rgb(188, 212, 207);&quot;&gt;type&lt;/span&gt;&lt;span style=&quot;border-color: var(--border-color); color: rgb(122, 218, 209); font-weight: bold;&quot;&gt;=&lt;/span&gt;&lt;span style=&quot;border-color: var(--border-color); color: rgb(122, 218, 209);&quot;&gt;&quot;number&quot;&lt;/span&gt;&amp;nbsp;&lt;span style=&quot;border-color: var(--border-color); color: rgb(188, 212, 207);&quot;&gt;v-model&lt;/span&gt;&lt;span style=&quot;border-color: var(--border-color); color: rgb(122, 218, 209); font-weight: bold;&quot;&gt;=&lt;/span&gt;&lt;span style=&quot;border-color: var(--border-color); color: rgb(122, 218, 209);&quot;&gt;&quot;&lt;/span&gt;&lt;span style=&quot;border-color: var(--border-color); color: rgb(133, 238, 167);&quot;&gt;angle&lt;/span&gt;&lt;span style=&quot;border-color: var(--border-color); color: rgb(122, 218, 209);&quot;&gt;&quot;&lt;/span&gt;&amp;nbsp;&lt;span style=&quot;border-color: var(--border-color); color: rgb(188, 212, 207);&quot;&gt;/&amp;gt;&lt;/span&gt;&lt;/div&gt;&lt;div style=&quot;border-color: var(--border-color);&quot;&gt;&amp;nbsp; &amp;nbsp;&amp;nbsp;&lt;span style=&quot;border-color: var(--border-color); color: rgb(188, 212, 207);&quot;&gt;&amp;lt;/&lt;/span&gt;&lt;span style=&quot;border-color: var(--border-color); color: rgb(120, 168, 214); font-weight: bold;&quot;&gt;label&lt;/span&gt;&lt;span style=&quot;border-color: var(--border-color); color: rgb(188, 212, 207);&quot;&gt;&amp;gt;&lt;/span&gt;&lt;/div&gt;&lt;br style=&quot;border-color: var(--border-color);&quot;&gt;&lt;div style=&quot;border-color: var(--border-color);&quot;&gt;&amp;nbsp; &amp;nbsp;&amp;nbsp;&lt;span style=&quot;border-color: var(--border-color); color: rgb(188, 212, 207);&quot;&gt;&amp;lt;&lt;/span&gt;&lt;span style=&quot;border-color: var(--border-color); color: rgb(120, 168, 214); font-weight: bold;&quot;&gt;div&lt;/span&gt;&lt;/div&gt;&lt;div style=&quot;border-color: var(--border-color);&quot;&gt;&amp;nbsp; &amp;nbsp; &amp;nbsp;&amp;nbsp;&lt;span style=&quot;border-color: var(--border-color); color: rgb(188, 212, 207);&quot;&gt;class&lt;/span&gt;&lt;span style=&quot;border-color: var(--border-color); color: rgb(122, 218, 209); font-weight: bold;&quot;&gt;=&lt;/span&gt;&lt;span style=&quot;border-color: var(--border-color); color: rgb(122, 218, 209);&quot;&gt;&quot;circle&quot;&lt;/span&gt;&lt;/div&gt;&lt;div style=&quot;border-color: var(--border-color);&quot;&gt;&amp;nbsp; &amp;nbsp; &amp;nbsp; :&lt;span style=&quot;border-color: var(--border-color); color: rgb(188, 212, 207);&quot;&gt;class&lt;/span&gt;&lt;span style=&quot;border-color: var(--border-color); color: rgb(122, 218, 209); font-weight: bold;&quot;&gt;=&lt;/span&gt;&lt;span style=&quot;border-color: var(--border-color); color: rgb(122, 218, 209);&quot;&gt;&quot;&lt;/span&gt;[&lt;span style=&quot;border-color: var(--border-color); color: rgb(133, 238, 167);&quot;&gt;circleClass&lt;/span&gt;,&amp;nbsp;&lt;span style=&quot;border-color: var(--border-color); color: rgb(133, 238, 167);&quot;&gt;textColor&lt;/span&gt;]&lt;span style=&quot;border-color: var(--border-color); color: rgb(122, 218, 209);&quot;&gt;&quot;&lt;/span&gt;&lt;/div&gt;&lt;div style=&quot;border-color: var(--border-color);&quot;&gt;&amp;nbsp; &amp;nbsp; &amp;nbsp; :&lt;span style=&quot;border-color: var(--border-color); color: rgb(188, 212, 207);&quot;&gt;style&lt;/span&gt;&lt;span style=&quot;border-color: var(--border-color); color: rgb(122, 218, 209); font-weight: bold;&quot;&gt;=&lt;/span&gt;&lt;span style=&quot;border-color: var(--border-color); color: rgb(122, 218, 209);&quot;&gt;&quot;&lt;/span&gt;[&lt;span style=&quot;border-color: var(--border-color); color: rgb(133, 238, 167);&quot;&gt;circleSize&lt;/span&gt;,&amp;nbsp;&lt;span style=&quot;border-color: var(--border-color); color: rgb(133, 238, 167);&quot;&gt;circleAngle&lt;/span&gt;]&lt;span style=&quot;border-color: var(--border-color); color: rgb(122, 218, 209);&quot;&gt;&quot;&lt;/span&gt;&lt;/div&gt;&lt;div style=&quot;border-color: var(--border-color);&quot;&gt;&amp;nbsp; &amp;nbsp;&amp;nbsp;&lt;span style=&quot;border-color: var(--border-color); color: rgb(188, 212, 207);&quot;&gt;&amp;gt;&lt;/span&gt;&lt;/div&gt;&lt;div style=&quot;border-color: var(--border-color);&quot;&gt;&amp;nbsp; &amp;nbsp; &amp;nbsp; Hi!&lt;/div&gt;&lt;div style=&quot;border-color: var(--border-color);&quot;&gt;&amp;nbsp; &amp;nbsp;&amp;nbsp;&lt;span style=&quot;border-color: var(--border-color); color: rgb(188, 212, 207);&quot;&gt;&amp;lt;/&lt;/span&gt;&lt;span style=&quot;border-color: var(--border-color); color: rgb(120, 168, 214); font-weight: bold;&quot;&gt;div&lt;/span&gt;&lt;span style=&quot;border-color: var(--border-color); color: rgb(188, 212, 207);&quot;&gt;&amp;gt;&lt;/span&gt;&lt;/div&gt;&lt;div style=&quot;border-color: var(--border-color);&quot;&gt;&amp;nbsp;&amp;nbsp;&lt;span style=&quot;border-color: var(--border-color); color: rgb(188, 212, 207);&quot;&gt;&amp;lt;/&lt;/span&gt;&lt;span style=&quot;border-color: var(--border-color); color: rgb(120, 168, 214); font-weight: bold;&quot;&gt;div&lt;/span&gt;&lt;span style=&quot;border-color: var(--border-color); color: rgb(188, 212, 207);&quot;&gt;&amp;gt;&lt;/span&gt;&lt;/div&gt;&lt;div style=&quot;border-color: var(--border-color);&quot;&gt;&lt;span style=&quot;border-color: var(--border-color); color: rgb(188, 212, 207);&quot;&gt;&amp;lt;/&lt;/span&gt;&lt;span style=&quot;border-color: var(--border-color); color: rgb(120, 168, 214); font-weight: bold;&quot;&gt;template&lt;/span&gt;&lt;span style=&quot;border-color: var(--border-color); color: rgb(188, 212, 207);&quot;&gt;&amp;gt;&lt;/span&gt;&lt;/div&gt;&lt;br style=&quot;border-color: var(--border-color);&quot;&gt;&lt;div style=&quot;border-color: var(--border-color);&quot;&gt;&lt;span style=&quot;border-color: var(--border-color); color: rgb(188, 212, 207);&quot;&gt;&amp;lt;&lt;/span&gt;&lt;span style=&quot;border-color: var(--border-color); color: rgb(120, 168, 214); font-weight: bold;&quot;&gt;script&lt;/span&gt;&lt;span style=&quot;border-color: var(--border-color); color: rgb(188, 212, 207);&quot;&gt;&amp;gt;&lt;/span&gt;&lt;/div&gt;&lt;div style=&quot;border-color: var(--border-color);&quot;&gt;&lt;span style=&quot;border-color: var(--border-color); color: rgb(188, 212, 207); font-weight: bold;&quot;&gt;export&lt;/span&gt;&amp;nbsp;&lt;span style=&quot;border-color: var(--border-color); color: rgb(188, 212, 207); font-weight: bold;&quot;&gt;default&lt;/span&gt;&amp;nbsp;&lt;span style=&quot;border-color: var(--border-color); color: rgb(122, 218, 209);&quot;&gt;{&lt;/span&gt;&lt;/div&gt;&lt;div style=&quot;border-color: var(--border-color);&quot;&gt;&amp;nbsp;&amp;nbsp;&lt;span style=&quot;border-color: var(--border-color); color: rgb(133, 238, 167); font-weight: bold;&quot;&gt;data&lt;/span&gt;()&amp;nbsp;&lt;span style=&quot;border-color: var(--border-color); color: rgb(122, 218, 209);&quot;&gt;{&lt;/span&gt;&lt;/div&gt;&lt;div style=&quot;border-color: var(--border-color);&quot;&gt;&amp;nbsp; &amp;nbsp;&amp;nbsp;&lt;span style=&quot;border-color: var(--border-color); color: rgb(188, 212, 207); font-weight: bold;&quot;&gt;return&lt;/span&gt;&amp;nbsp;&lt;span style=&quot;border-color: var(--border-color); color: rgb(122, 218, 209);&quot;&gt;{&lt;/span&gt;&lt;/div&gt;&lt;div style=&quot;border-color: var(--border-color);&quot;&gt;&amp;nbsp; &amp;nbsp; &amp;nbsp;&amp;nbsp;&lt;span style=&quot;border-color: var(--border-color); color: rgb(120, 168, 214);&quot;&gt;isPurple&lt;/span&gt;&lt;span style=&quot;border-color: var(--border-color); color: rgb(122, 218, 209); font-weight: bold;&quot;&gt;:&lt;/span&gt;&amp;nbsp;&lt;span style=&quot;border-color: var(--border-color); color: rgb(122, 218, 209);&quot;&gt;false&lt;/span&gt;,&lt;/div&gt;&lt;div style=&quot;border-color: var(--border-color);&quot;&gt;&amp;nbsp; &amp;nbsp; &amp;nbsp;&amp;nbsp;&lt;span style=&quot;border-color: var(--border-color); color: rgb(120, 168, 214);&quot;&gt;textColor&lt;/span&gt;&lt;span style=&quot;border-color: var(--border-color); color: rgb(122, 218, 209); font-weight: bold;&quot;&gt;:&lt;/span&gt;&amp;nbsp;&lt;span style=&quot;border-color: var(--border-color); color: rgb(122, 218, 209);&quot;&gt;&quot;&quot;&lt;/span&gt;,&lt;/div&gt;&lt;div style=&quot;border-color: var(--border-color);&quot;&gt;&amp;nbsp; &amp;nbsp; &amp;nbsp;&amp;nbsp;&lt;span style=&quot;border-color: var(--border-color); color: rgb(120, 168, 214);&quot;&gt;size&lt;/span&gt;&lt;span style=&quot;border-color: var(--border-color); color: rgb(122, 218, 209); font-weight: bold;&quot;&gt;:&lt;/span&gt;&amp;nbsp;&lt;span style=&quot;border-color: var(--border-color); color: rgb(122, 218, 209); font-weight: bold;&quot;&gt;200&lt;/span&gt;,&lt;/div&gt;&lt;div style=&quot;border-color: var(--border-color);&quot;&gt;&amp;nbsp; &amp;nbsp; &amp;nbsp;&amp;nbsp;&lt;span style=&quot;border-color: var(--border-color); color: rgb(120, 168, 214);&quot;&gt;angle&lt;/span&gt;&lt;span style=&quot;border-color: var(--border-color); color: rgb(122, 218, 209); font-weight: bold;&quot;&gt;:&lt;/span&gt;&amp;nbsp;&lt;span style=&quot;border-color: var(--border-color); color: rgb(122, 218, 209); font-weight: bold;&quot;&gt;0&lt;/span&gt;,&lt;/div&gt;&lt;div style=&quot;border-color: var(--border-color);&quot;&gt;&amp;nbsp; &amp;nbsp;&amp;nbsp;&lt;span style=&quot;border-color: var(--border-color); color: rgb(122, 218, 209);&quot;&gt;}&lt;/span&gt;;&lt;/div&gt;&lt;div style=&quot;border-color: var(--border-color);&quot;&gt;&amp;nbsp;&amp;nbsp;&lt;span style=&quot;border-color: var(--border-color); color: rgb(122, 218, 209);&quot;&gt;}&lt;/span&gt;,&lt;/div&gt;&lt;br style=&quot;border-color: var(--border-color);&quot;&gt;&lt;div style=&quot;border-color: var(--border-color);&quot;&gt;&amp;nbsp;&amp;nbsp;&lt;span style=&quot;border-color: var(--border-color); color: rgb(120, 168, 214);&quot;&gt;computed&lt;/span&gt;&lt;span style=&quot;border-color: var(--border-color); color: rgb(122, 218, 209); font-weight: bold;&quot;&gt;:&lt;/span&gt;&amp;nbsp;&lt;span style=&quot;border-color: var(--border-color); color: rgb(122, 218, 209);&quot;&gt;{&lt;/span&gt;&lt;/div&gt;&lt;div style=&quot;border-color: var(--border-color);&quot;&gt;&amp;nbsp; &amp;nbsp;&amp;nbsp;&lt;span style=&quot;border-color: var(--border-color); color: rgb(133, 238, 167); font-weight: bold;&quot;&gt;circleClass&lt;/span&gt;()&amp;nbsp;&lt;span style=&quot;border-color: var(--border-color); color: rgb(122, 218, 209);&quot;&gt;{&lt;/span&gt;&lt;/div&gt;&lt;div style=&quot;border-color: var(--border-color);&quot;&gt;&amp;nbsp; &amp;nbsp; &amp;nbsp;&amp;nbsp;&lt;span style=&quot;border-color: var(--border-color); color: rgb(188, 212, 207); font-weight: bold;&quot;&gt;return&lt;/span&gt;&amp;nbsp;&lt;span style=&quot;border-color: var(--border-color); color: rgb(122, 218, 209);&quot;&gt;{&lt;/span&gt;&lt;/div&gt;&lt;div style=&quot;border-color: var(--border-color);&quot;&gt;&amp;nbsp; &amp;nbsp; &amp;nbsp; &amp;nbsp;&amp;nbsp;&lt;span style=&quot;border-color: var(--border-color); color: rgb(120, 168, 214);&quot;&gt;purple&lt;/span&gt;&lt;span style=&quot;border-color: var(--border-color); color: rgb(122, 218, 209); font-weight: bold;&quot;&gt;:&lt;/span&gt;&amp;nbsp;&lt;span style=&quot;border-color: var(--border-color); color: rgb(120, 168, 214);&quot;&gt;this&lt;/span&gt;.&lt;span style=&quot;border-color: var(--border-color); color: rgb(122, 218, 209); font-weight: bold;&quot;&gt;isPurple&lt;/span&gt;,&lt;/div&gt;&lt;div style=&quot;border-color: var(--border-color);&quot;&gt;&amp;nbsp; &amp;nbsp; &amp;nbsp;&amp;nbsp;&lt;span style=&quot;border-color: var(--border-color); color: rgb(122, 218, 209);&quot;&gt;}&lt;/span&gt;;&lt;/div&gt;&lt;div style=&quot;border-color: var(--border-color);&quot;&gt;&amp;nbsp; &amp;nbsp;&amp;nbsp;&lt;span style=&quot;border-color: var(--border-color); color: rgb(122, 218, 209);&quot;&gt;}&lt;/span&gt;,&lt;/div&gt;&lt;br style=&quot;border-color: var(--border-color);&quot;&gt;&lt;div style=&quot;border-color: var(--border-color);&quot;&gt;&amp;nbsp; &amp;nbsp;&amp;nbsp;&lt;span style=&quot;border-color: var(--border-color); color: rgb(133, 238, 167); font-weight: bold;&quot;&gt;circleSize&lt;/span&gt;()&amp;nbsp;&lt;span style=&quot;border-color: var(--border-color); color: rgb(122, 218, 209);&quot;&gt;{&lt;/span&gt;&lt;/div&gt;&lt;div style=&quot;border-color: var(--border-color);&quot;&gt;&amp;nbsp; &amp;nbsp; &amp;nbsp;&amp;nbsp;&lt;span style=&quot;border-color: var(--border-color); color: rgb(188, 212, 207); font-weight: bold;&quot;&gt;return&lt;/span&gt;&amp;nbsp;&lt;span style=&quot;border-color: var(--border-color); color: rgb(122, 218, 209);&quot;&gt;{&lt;/span&gt;&lt;/div&gt;&lt;div style=&quot;border-color: var(--border-color);&quot;&gt;&amp;nbsp; &amp;nbsp; &amp;nbsp; &amp;nbsp;&amp;nbsp;&lt;span style=&quot;border-color: var(--border-color); color: rgb(120, 168, 214);&quot;&gt;height&lt;/span&gt;&lt;span style=&quot;border-color: var(--border-color); color: rgb(122, 218, 209); font-weight: bold;&quot;&gt;:&lt;/span&gt;&amp;nbsp;&lt;span style=&quot;border-color: var(--border-color); color: rgb(122, 218, 209);&quot;&gt;`${&lt;/span&gt;&lt;span style=&quot;border-color: var(--border-color); color: rgb(120, 168, 214);&quot;&gt;this&lt;/span&gt;&lt;span style=&quot;border-color: var(--border-color); color: rgb(243, 243, 243);&quot;&gt;.&lt;/span&gt;&lt;span style=&quot;border-color: var(--border-color); color: rgb(122, 218, 209); font-weight: bold;&quot;&gt;size&lt;/span&gt;&lt;span style=&quot;border-color: var(--border-color); color: rgb(122, 218, 209);&quot;&gt;}px`&lt;/span&gt;,&lt;/div&gt;&lt;div style=&quot;border-color: var(--border-color);&quot;&gt;&amp;nbsp; &amp;nbsp; &amp;nbsp; &amp;nbsp;&amp;nbsp;&lt;span style=&quot;border-color: var(--border-color); color: rgb(120, 168, 214);&quot;&gt;width&lt;/span&gt;&lt;span style=&quot;border-color: var(--border-color); color: rgb(122, 218, 209); font-weight: bold;&quot;&gt;:&lt;/span&gt;&amp;nbsp;&lt;span style=&quot;border-color: var(--border-color); color: rgb(122, 218, 209);&quot;&gt;`${&lt;/span&gt;&lt;span style=&quot;border-color: var(--border-color); color: rgb(120, 168, 214);&quot;&gt;this&lt;/span&gt;&lt;span style=&quot;border-color: var(--border-color); color: rgb(243, 243, 243);&quot;&gt;.&lt;/span&gt;&lt;span style=&quot;border-color: var(--border-color); color: rgb(122, 218, 209); font-weight: bold;&quot;&gt;size&lt;/span&gt;&lt;span style=&quot;border-color: var(--border-color); color: rgb(122, 218, 209);&quot;&gt;}px`&lt;/span&gt;,&lt;/div&gt;&lt;div style=&quot;border-color: var(--border-color);&quot;&gt;&amp;nbsp; &amp;nbsp; &amp;nbsp; &amp;nbsp;&amp;nbsp;&lt;span style=&quot;border-color: var(--border-color); color: rgb(120, 168, 214);&quot;&gt;lineHeight&lt;/span&gt;&lt;span style=&quot;border-color: var(--border-color); color: rgb(122, 218, 209); font-weight: bold;&quot;&gt;:&lt;/span&gt;&amp;nbsp;&lt;span style=&quot;border-color: var(--border-color); color: rgb(122, 218, 209);&quot;&gt;`${&lt;/span&gt;&lt;span style=&quot;border-color: var(--border-color); color: rgb(120, 168, 214);&quot;&gt;this&lt;/span&gt;&lt;span style=&quot;border-color: var(--border-color); color: rgb(243, 243, 243);&quot;&gt;.&lt;/span&gt;&lt;span style=&quot;border-color: var(--border-color); color: rgb(122, 218, 209); font-weight: bold;&quot;&gt;size&lt;/span&gt;&lt;span style=&quot;border-color: var(--border-color); color: rgb(122, 218, 209);&quot;&gt;}px`&lt;/span&gt;,&lt;/div&gt;&lt;div style=&quot;border-color: var(--border-color);&quot;&gt;&amp;nbsp; &amp;nbsp; &amp;nbsp;&amp;nbsp;&lt;span style=&quot;border-color: var(--border-color); color: rgb(122, 218, 209);&quot;&gt;}&lt;/span&gt;;&lt;/div&gt;&lt;div style=&quot;border-color: var(--border-color);&quot;&gt;&amp;nbsp; &amp;nbsp;&amp;nbsp;&lt;span style=&quot;border-color: var(--border-color); color: rgb(122, 218, 209);&quot;&gt;}&lt;/span&gt;,&lt;/div&gt;&lt;br style=&quot;border-color: var(--border-color);&quot;&gt;&lt;div style=&quot;border-color: var(--border-color);&quot;&gt;&amp;nbsp; &amp;nbsp;&amp;nbsp;&lt;span style=&quot;border-color: var(--border-color); color: rgb(133, 238, 167); font-weight: bold;&quot;&gt;circleAngle&lt;/span&gt;()&amp;nbsp;&lt;span style=&quot;border-color: var(--border-color); color: rgb(122, 218, 209);&quot;&gt;{&lt;/span&gt;&lt;/div&gt;&lt;div style=&quot;border-color: var(--border-color);&quot;&gt;&amp;nbsp; &amp;nbsp; &amp;nbsp;&amp;nbsp;&lt;span style=&quot;border-color: var(--border-color); color: rgb(188, 212, 207); font-weight: bold;&quot;&gt;return&lt;/span&gt;&amp;nbsp;&lt;span style=&quot;border-color: var(--border-color); color: rgb(122, 218, 209);&quot;&gt;{&lt;/span&gt;&lt;/div&gt;&lt;div style=&quot;border-color: var(--border-color);&quot;&gt;&amp;nbsp; &amp;nbsp; &amp;nbsp; &amp;nbsp;&amp;nbsp;&lt;span style=&quot;border-color: var(--border-color); color: rgb(120, 168, 214);&quot;&gt;transform&lt;/span&gt;&lt;span style=&quot;border-color: var(--border-color); color: rgb(122, 218, 209); font-weight: bold;&quot;&gt;:&lt;/span&gt;&amp;nbsp;&lt;span style=&quot;border-color: var(--border-color); color: rgb(122, 218, 209);&quot;&gt;`rotate(${&lt;/span&gt;&lt;span style=&quot;border-color: var(--border-color); color: rgb(120, 168, 214);&quot;&gt;this&lt;/span&gt;&lt;span style=&quot;border-color: var(--border-color); color: rgb(243, 243, 243);&quot;&gt;.&lt;/span&gt;&lt;span style=&quot;border-color: var(--border-color); color: rgb(122, 218, 209); font-weight: bold;&quot;&gt;angle&lt;/span&gt;&lt;span style=&quot;border-color: var(--border-color); color: rgb(122, 218, 209);&quot;&gt;}deg)`&lt;/span&gt;,&lt;/div&gt;&lt;div style=&quot;border-color: var(--border-color);&quot;&gt;&amp;nbsp; &amp;nbsp; &amp;nbsp;&amp;nbsp;&lt;span style=&quot;border-color: var(--border-color); color: rgb(122, 218, 209);&quot;&gt;}&lt;/span&gt;;&lt;/div&gt;&lt;div style=&quot;border-color: var(--border-color);&quot;&gt;&amp;nbsp; &amp;nbsp;&amp;nbsp;&lt;span style=&quot;border-color: var(--border-color); color: rgb(122, 218, 209);&quot;&gt;}&lt;/span&gt;,&lt;/div&gt;&lt;div style=&quot;border-color: var(--border-color);&quot;&gt;&amp;nbsp;&amp;nbsp;&lt;span style=&quot;border-color: var(--border-color); color: rgb(122, 218, 209);&quot;&gt;}&lt;/span&gt;,&lt;/div&gt;&lt;div style=&quot;border-color: var(--border-color);&quot;&gt;&lt;span style=&quot;border-color: var(--border-color); color: rgb(122, 218, 209);&quot;&gt;}&lt;/span&gt;;&lt;/div&gt;&lt;div style=&quot;border-color: var(--border-color);&quot;&gt;&lt;span style=&quot;border-color: var(--border-color); color: rgb(188, 212, 207);&quot;&gt;&amp;lt;/&lt;/span&gt;&lt;span style=&quot;border-color: var(--border-color); color: rgb(120, 168, 214); font-weight: bold;&quot;&gt;script&lt;/span&gt;&lt;span style=&quot;border-color: var(--border-color); color: rgb(188, 212, 207);&quot;&gt;&amp;gt;&lt;/span&gt;&lt;/div&gt;&lt;br style=&quot;border-color: var(--border-color);&quot;&gt;&lt;div style=&quot;border-color: var(--border-color);&quot;&gt;&lt;span style=&quot;border-color: var(--border-color); color: rgb(188, 212, 207);&quot;&gt;&amp;lt;&lt;/span&gt;&lt;span style=&quot;border-color: var(--border-color); color: rgb(120, 168, 214); font-weight: bold;&quot;&gt;style&lt;/span&gt;&lt;span style=&quot;border-color: var(--border-color); color: rgb(188, 212, 207);&quot;&gt;&amp;gt;&lt;/span&gt;&lt;/div&gt;&lt;div style=&quot;border-color: var(--border-color);&quot;&gt;&lt;span style=&quot;border-color: var(--border-color); color: rgb(120, 168, 214); font-weight: bold;&quot;&gt;body&lt;/span&gt;&amp;nbsp;{&lt;/div&gt;&lt;div style=&quot;border-color: var(--border-color);&quot;&gt;&amp;nbsp;&amp;nbsp;&lt;span style=&quot;border-color: var(--border-color); color: rgb(242, 242, 242);&quot;&gt;font-size&lt;/span&gt;&lt;span style=&quot;border-color: var(--border-color); color: rgb(122, 218, 209); font-weight: bold;&quot;&gt;:&lt;/span&gt;&amp;nbsp;&lt;span style=&quot;border-color: var(--border-color); color: rgb(122, 218, 209); font-weight: bold;&quot;&gt;20&lt;/span&gt;&lt;span style=&quot;border-color: var(--border-color); color: rgb(133, 238, 167); font-weight: bold;&quot;&gt;px&lt;/span&gt;;&lt;/div&gt;&lt;div style=&quot;border-color: var(--border-color);&quot;&gt;&amp;nbsp;&amp;nbsp;&lt;span style=&quot;border-color: var(--border-color); color: rgb(242, 242, 242);&quot;&gt;font-family&lt;/span&gt;&lt;span style=&quot;border-color: var(--border-color); color: rgb(122, 218, 209); font-weight: bold;&quot;&gt;:&lt;/span&gt;&amp;nbsp;&lt;span style=&quot;border-color: var(--border-color); color: rgb(133, 238, 167); font-weight: bold;&quot;&gt;sans-serif&lt;/span&gt;;&lt;/div&gt;&lt;div style=&quot;border-color: var(--border-color);&quot;&gt;}&lt;/div&gt;&lt;div style=&quot;border-color: var(--border-color);&quot;&gt;&lt;span style=&quot;border-color: var(--border-color); color: rgb(120, 168, 214); font-weight: bold;&quot;&gt;label&lt;/span&gt;&amp;nbsp;{&lt;/div&gt;&lt;div style=&quot;border-color: var(--border-color);&quot;&gt;&amp;nbsp;&amp;nbsp;&lt;span style=&quot;border-color: var(--border-color); color: rgb(242, 242, 242);&quot;&gt;margin-bottom&lt;/span&gt;&lt;span style=&quot;border-color: var(--border-color); color: rgb(122, 218, 209); font-weight: bold;&quot;&gt;:&lt;/span&gt;&amp;nbsp;&lt;span style=&quot;border-color: var(--border-color); color: rgb(122, 218, 209); font-weight: bold;&quot;&gt;20&lt;/span&gt;&lt;span style=&quot;border-color: var(--border-color); color: rgb(133, 238, 167); font-weight: bold;&quot;&gt;px&lt;/span&gt;;&lt;/div&gt;&lt;div style=&quot;border-color: var(--border-color);&quot;&gt;&amp;nbsp;&amp;nbsp;&lt;span style=&quot;border-color: var(--border-color); color: rgb(242, 242, 242);&quot;&gt;font-size&lt;/span&gt;&lt;span style=&quot;border-color: var(--border-color); color: rgb(122, 218, 209); font-weight: bold;&quot;&gt;:&lt;/span&gt;&amp;nbsp;&lt;span style=&quot;border-color: var(--border-color); color: rgb(122, 218, 209); font-weight: bold;&quot;&gt;20&lt;/span&gt;&lt;span style=&quot;border-color: var(--border-color); color: rgb(133, 238, 167); font-weight: bold;&quot;&gt;px&lt;/span&gt;;&lt;/div&gt;&lt;div style=&quot;border-color: var(--border-color);&quot;&gt;&amp;nbsp;&amp;nbsp;&lt;span style=&quot;border-color: var(--border-color); color: rgb(242, 242, 242);&quot;&gt;display&lt;/span&gt;&lt;span style=&quot;border-color: var(--border-color); color: rgb(122, 218, 209); font-weight: bold;&quot;&gt;:&lt;/span&gt;&amp;nbsp;&lt;span style=&quot;border-color: var(--border-color); color: rgb(120, 168, 214); font-weight: bold;&quot;&gt;block&lt;/span&gt;;&lt;/div&gt;&lt;div style=&quot;border-color: var(--border-color);&quot;&gt;}&lt;/div&gt;&lt;div style=&quot;border-color: var(--border-color);&quot;&gt;&lt;span style=&quot;border-color: var(--border-color); color: rgb(120, 168, 214); font-weight: bold;&quot;&gt;select&lt;/span&gt;&amp;nbsp;{&lt;/div&gt;&lt;div style=&quot;border-color: var(--border-color);&quot;&gt;&amp;nbsp;&amp;nbsp;&lt;span style=&quot;border-color: var(--border-color); color: rgb(242, 242, 242);&quot;&gt;font-size&lt;/span&gt;&lt;span style=&quot;border-color: var(--border-color); color: rgb(122, 218, 209); font-weight: bold;&quot;&gt;:&lt;/span&gt;&amp;nbsp;&lt;span style=&quot;border-color: var(--border-color); color: rgb(122, 218, 209); font-weight: bold;&quot;&gt;20&lt;/span&gt;&lt;span style=&quot;border-color: var(--border-color); color: rgb(133, 238, 167); font-weight: bold;&quot;&gt;px&lt;/span&gt;;&lt;/div&gt;&lt;div style=&quot;border-color: var(--border-color);&quot;&gt;&amp;nbsp;&amp;nbsp;&lt;span style=&quot;border-color: var(--border-color); color: rgb(242, 242, 242);&quot;&gt;margin-bottom&lt;/span&gt;&lt;span style=&quot;border-color: var(--border-color); color: rgb(122, 218, 209); font-weight: bold;&quot;&gt;:&lt;/span&gt;&amp;nbsp;&lt;span style=&quot;border-color: var(--border-color); color: rgb(122, 218, 209); font-weight: bold;&quot;&gt;20&lt;/span&gt;&lt;span style=&quot;border-color: var(--border-color); color: rgb(133, 238, 167); font-weight: bold;&quot;&gt;px&lt;/span&gt;;&lt;/div&gt;&lt;div style=&quot;border-color: var(--border-color);&quot;&gt;}&lt;/div&gt;&lt;div style=&quot;border-color: var(--border-color);&quot;&gt;&lt;span style=&quot;border-color: var(--border-color); color: rgb(120, 168, 214); font-weight: bold;&quot;&gt;input&lt;/span&gt;[&lt;span style=&quot;border-color: var(--border-color); color: rgb(188, 212, 207);&quot;&gt;type&lt;/span&gt;&lt;span style=&quot;border-color: var(--border-color); color: rgb(122, 218, 209); font-weight: bold;&quot;&gt;=&lt;/span&gt;&lt;span style=&quot;border-color: var(--border-color); color: rgb(122, 218, 209);&quot;&gt;&quot;number&quot;&lt;/span&gt;] {&lt;/div&gt;&lt;div style=&quot;border-color: var(--border-color);&quot;&gt;&amp;nbsp;&amp;nbsp;&lt;span style=&quot;border-color: var(--border-color); color: rgb(242, 242, 242);&quot;&gt;display&lt;/span&gt;&lt;span style=&quot;border-color: var(--border-color); color: rgb(122, 218, 209); font-weight: bold;&quot;&gt;:&lt;/span&gt;&amp;nbsp;&lt;span style=&quot;border-color: var(--border-color); color: rgb(120, 168, 214); font-weight: bold;&quot;&gt;block&lt;/span&gt;;&lt;/div&gt;&lt;div style=&quot;border-color: var(--border-color);&quot;&gt;&amp;nbsp;&amp;nbsp;&lt;span style=&quot;border-color: var(--border-color); color: rgb(242, 242, 242);&quot;&gt;font-size&lt;/span&gt;&lt;span style=&quot;border-color: var(--border-color); color: rgb(122, 218, 209); font-weight: bold;&quot;&gt;:&lt;/span&gt;&amp;nbsp;&lt;span style=&quot;border-color: var(--border-color); color: rgb(122, 218, 209); font-weight: bold;&quot;&gt;20&lt;/span&gt;&lt;span style=&quot;border-color: var(--border-color); color: rgb(133, 238, 167); font-weight: bold;&quot;&gt;px&lt;/span&gt;;&lt;/div&gt;&lt;div style=&quot;border-color: var(--border-color);&quot;&gt;&amp;nbsp;&amp;nbsp;&lt;span style=&quot;border-color: var(--border-color); color: rgb(242, 242, 242);&quot;&gt;margin-bottom&lt;/span&gt;&lt;span style=&quot;border-color: var(--border-color); color: rgb(122, 218, 209); font-weight: bold;&quot;&gt;:&lt;/span&gt;&amp;nbsp;&lt;span style=&quot;border-color: var(--border-color); color: rgb(122, 218, 209); font-weight: bold;&quot;&gt;20&lt;/span&gt;&lt;span style=&quot;border-color: var(--border-color); color: rgb(133, 238, 167); font-weight: bold;&quot;&gt;px&lt;/span&gt;;&lt;/div&gt;&lt;div style=&quot;border-color: var(--border-color);&quot;&gt;}&lt;/div&gt;&lt;div style=&quot;border-color: var(--border-color);&quot;&gt;&lt;span style=&quot;border-color: var(--border-color); color: rgb(188, 212, 207);&quot;&gt;.circle&lt;/span&gt;&amp;nbsp;{&lt;/div&gt;&lt;div style=&quot;border-color: var(--border-color);&quot;&gt;&amp;nbsp;&amp;nbsp;&lt;span style=&quot;border-color: var(--border-color); color: rgb(242, 242, 242);&quot;&gt;width&lt;/span&gt;&lt;span style=&quot;border-color: var(--border-color); color: rgb(122, 218, 209); font-weight: bold;&quot;&gt;:&lt;/span&gt;&amp;nbsp;&lt;span style=&quot;border-color: var(--border-color); color: rgb(122, 218, 209); font-weight: bold;&quot;&gt;150&lt;/span&gt;&lt;span style=&quot;border-color: var(--border-color); color: rgb(133, 238, 167); font-weight: bold;&quot;&gt;px&lt;/span&gt;;&lt;/div&gt;&lt;div style=&quot;border-color: var(--border-color);&quot;&gt;&amp;nbsp;&amp;nbsp;&lt;span style=&quot;border-color: var(--border-color); color: rgb(242, 242, 242);&quot;&gt;height&lt;/span&gt;&lt;span style=&quot;border-color: var(--border-color); color: rgb(122, 218, 209); font-weight: bold;&quot;&gt;:&lt;/span&gt;&amp;nbsp;&lt;span style=&quot;border-color: var(--border-color); color: rgb(122, 218, 209); font-weight: bold;&quot;&gt;150&lt;/span&gt;&lt;span style=&quot;border-color: var(--border-color); color: rgb(133, 238, 167); font-weight: bold;&quot;&gt;px&lt;/span&gt;;&lt;/div&gt;&lt;div style=&quot;border-color: var(--border-color);&quot;&gt;&amp;nbsp;&amp;nbsp;&lt;span style=&quot;border-color: var(--border-color); color: rgb(242, 242, 242);&quot;&gt;border-radius&lt;/span&gt;&lt;span style=&quot;border-color: var(--border-color); color: rgb(122, 218, 209); font-weight: bold;&quot;&gt;:&lt;/span&gt;&amp;nbsp;&lt;span style=&quot;border-color: var(--border-color); color: rgb(122, 218, 209); font-weight: bold;&quot;&gt;100&lt;/span&gt;&lt;span style=&quot;border-color: var(--border-color); color: rgb(133, 238, 167); font-weight: bold;&quot;&gt;%&lt;/span&gt;;&lt;/div&gt;&lt;div style=&quot;border-color: var(--border-color);&quot;&gt;&amp;nbsp;&amp;nbsp;&lt;span style=&quot;border-color: var(--border-color); color: rgb(242, 242, 242);&quot;&gt;background-color&lt;/span&gt;&lt;span style=&quot;border-color: var(--border-color); color: rgb(122, 218, 209); font-weight: bold;&quot;&gt;:&lt;/span&gt;&amp;nbsp;&lt;span style=&quot;border-color: var(--border-color); color: rgb(122, 218, 209); font-weight: bold;&quot;&gt;#45d619&lt;/span&gt;;&lt;/div&gt;&lt;div style=&quot;border-color: var(--border-color);&quot;&gt;&amp;nbsp;&amp;nbsp;&lt;span style=&quot;border-color: var(--border-color); color: rgb(242, 242, 242);&quot;&gt;text-align&lt;/span&gt;&lt;span style=&quot;border-color: var(--border-color); color: rgb(122, 218, 209); font-weight: bold;&quot;&gt;:&lt;/span&gt;&amp;nbsp;&lt;span style=&quot;border-color: var(--border-color); color: rgb(120, 168, 214); font-weight: bold;&quot;&gt;center&lt;/span&gt;;&lt;/div&gt;&lt;div style=&quot;border-color: var(--border-color);&quot;&gt;&amp;nbsp;&amp;nbsp;&lt;span style=&quot;border-color: var(--border-color); color: rgb(242, 242, 242);&quot;&gt;color&lt;/span&gt;&lt;span style=&quot;border-color: var(--border-color); color: rgb(122, 218, 209); font-weight: bold;&quot;&gt;:&lt;/span&gt;&amp;nbsp;&lt;span style=&quot;border-color: var(--border-color); color: rgb(122, 218, 209); font-weight: bold;&quot;&gt;#fff&lt;/span&gt;;&lt;/div&gt;&lt;div style=&quot;border-color: var(--border-color);&quot;&gt;&amp;nbsp;&amp;nbsp;&lt;span style=&quot;border-color: var(--border-color); color: rgb(242, 242, 242);&quot;&gt;line-height&lt;/span&gt;&lt;span style=&quot;border-color: var(--border-color); color: rgb(122, 218, 209); font-weight: bold;&quot;&gt;:&lt;/span&gt;&amp;nbsp;&lt;span style=&quot;border-color: var(--border-color); color: rgb(122, 218, 209); font-weight: bold;&quot;&gt;150&lt;/span&gt;&lt;span style=&quot;border-color: var(--border-color); color: rgb(133, 238, 167); font-weight: bold;&quot;&gt;px&lt;/span&gt;;&lt;/div&gt;&lt;div style=&quot;border-color: var(--border-color);&quot;&gt;&amp;nbsp;&amp;nbsp;&lt;span style=&quot;border-color: var(--border-color); color: rgb(242, 242, 242);&quot;&gt;font-size&lt;/span&gt;&lt;span style=&quot;border-color: var(--border-color); color: rgb(122, 218, 209); font-weight: bold;&quot;&gt;:&lt;/span&gt;&amp;nbsp;&lt;span style=&quot;border-color: var(--border-color); color: rgb(122, 218, 209); font-weight: bold;&quot;&gt;32&lt;/span&gt;&lt;span style=&quot;border-color: var(--border-color); color: rgb(133, 238, 167); font-weight: bold;&quot;&gt;px&lt;/span&gt;;&lt;/div&gt;&lt;div style=&quot;border-color: var(--border-color);&quot;&gt;&amp;nbsp;&amp;nbsp;&lt;span style=&quot;border-color: var(--border-color); color: rgb(242, 242, 242);&quot;&gt;font-weight&lt;/span&gt;&lt;span style=&quot;border-color: var(--border-color); color: rgb(122, 218, 209); font-weight: bold;&quot;&gt;:&lt;/span&gt;&amp;nbsp;&lt;span style=&quot;border-color: var(--border-color); color: rgb(120, 168, 214); font-weight: bold;&quot;&gt;bold&lt;/span&gt;;&lt;/div&gt;&lt;div style=&quot;border-color: var(--border-color);&quot;&gt;}&lt;/div&gt;&lt;br style=&quot;border-color: var(--border-color);&quot;&gt;&lt;div style=&quot;border-color: var(--border-color);&quot;&gt;&lt;span style=&quot;border-color: var(--border-color); color: rgb(188, 212, 207);&quot;&gt;.purple&lt;/span&gt;&amp;nbsp;{&lt;/div&gt;&lt;div style=&quot;border-color: var(--border-color);&quot;&gt;&amp;nbsp;&amp;nbsp;&lt;span style=&quot;border-color: var(--border-color); color: rgb(242, 242, 242);&quot;&gt;background-color&lt;/span&gt;&lt;span style=&quot;border-color: var(--border-color); color: rgb(122, 218, 209); font-weight: bold;&quot;&gt;:&lt;/span&gt;&amp;nbsp;&lt;span style=&quot;border-color: var(--border-color); color: rgb(122, 218, 209); font-weight: bold;&quot;&gt;#767dea&lt;/span&gt;;&lt;/div&gt;&lt;div style=&quot;border-color: var(--border-color);&quot;&gt;}&lt;/div&gt;&lt;div style=&quot;border-color: var(--border-color);&quot;&gt;&lt;span style=&quot;border-color: var(--border-color); color: rgb(188, 212, 207);&quot;&gt;.text-black&lt;/span&gt;&amp;nbsp;{&lt;/div&gt;&lt;div style=&quot;border-color: var(--border-color);&quot;&gt;&amp;nbsp;&amp;nbsp;&lt;span style=&quot;border-color: var(--border-color); color: rgb(242, 242, 242);&quot;&gt;color&lt;/span&gt;&lt;span style=&quot;border-color: var(--border-color); color: rgb(122, 218, 209); font-weight: bold;&quot;&gt;:&lt;/span&gt;&amp;nbsp;&lt;span style=&quot;border-color: var(--border-color); color: rgb(122, 218, 209); font-weight: bold;&quot;&gt;#424242&lt;/span&gt;;&lt;/div&gt;&lt;div style=&quot;border-color: var(--border-color);&quot;&gt;}&lt;/div&gt;&lt;div style=&quot;border-color: var(--border-color);&quot;&gt;&lt;span style=&quot;border-color: var(--border-color); color: rgb(188, 212, 207);&quot;&gt;.text-orange&lt;/span&gt;&amp;nbsp;{&lt;/div&gt;&lt;div style=&quot;border-color: var(--border-color);&quot;&gt;&amp;nbsp;&amp;nbsp;&lt;span style=&quot;border-color: var(--border-color); color: rgb(242, 242, 242);&quot;&gt;color&lt;/span&gt;&lt;span style=&quot;border-color: var(--border-color); color: rgb(122, 218, 209); font-weight: bold;&quot;&gt;:&lt;/span&gt;&amp;nbsp;&lt;span style=&quot;border-color: var(--border-color); color: rgb(122, 218, 209); font-weight: bold;&quot;&gt;#ffc26f&lt;/span&gt;;&lt;/div&gt;&lt;div style=&quot;border-color: var(--border-color);&quot;&gt;}&lt;/div&gt;&lt;div style=&quot;border-color: var(--border-color);&quot;&gt;&lt;span style=&quot;border-color: var(--border-color); color: rgb(188, 212, 207);&quot;&gt;&amp;lt;/&lt;/span&gt;&lt;span style=&quot;border-color: var(--border-color); color: rgb(120, 168, 214); font-weight: bold;&quot;&gt;style&lt;/span&gt;&lt;span style=&quot;border-color: var(--border-color); color: rgb(188, 212, 207);&quot;&gt;&amp;gt;&lt;/span&gt;&lt;/div&gt;&lt;/div&gt;&lt;/div&gt;&lt;/div&gt;" style="rounded=0;whiteSpace=wrap;html=1;fillColor=#1c1e27;align=left;spacing=18;fontSize=15;" vertex="1" parent="1">
          <mxGeometry x="400" y="-240" width="680" height="2000" as="geometry" />
        </mxCell>
        <mxCell id="ajJ4fGMmNMzAooFR_enY-47" value="&lt;b&gt;&lt;font style=&quot;font-size: 15px;&quot;&gt;App.vue&lt;/font&gt;&lt;/b&gt;" style="text;html=1;align=center;verticalAlign=middle;resizable=0;points=[];autosize=1;strokeColor=none;fillColor=none;" vertex="1" parent="1">
          <mxGeometry x="700" y="-270" width="80" height="30" as="geometry" />
        </mxCell>
        <mxCell id="ajJ4fGMmNMzAooFR_enY-19" value="" style="rounded=0;whiteSpace=wrap;html=1;strokeWidth=1;opacity=30;fillColor=#a20025;fontColor=#ffffff;strokeColor=#6F0000;" vertex="1" parent="1">
          <mxGeometry x="440" y="-582" width="420" height="20" as="geometry" />
        </mxCell>
        <mxCell id="ajJ4fGMmNMzAooFR_enY-51" value="" style="rounded=0;whiteSpace=wrap;html=1;fillColor=#1ba1e2;strokeWidth=1;strokeColor=#006EAF;opacity=50;fontColor=#ffffff;" vertex="1" parent="1">
          <mxGeometry x="440" y="-562" width="420" height="20" as="geometry" />
        </mxCell>
        <mxCell id="ajJ4fGMmNMzAooFR_enY-52" value="" style="rounded=0;whiteSpace=wrap;html=1;fillColor=#1ba1e2;strokeWidth=1;strokeColor=#006EAF;opacity=50;fontColor=#ffffff;" vertex="1" parent="1">
          <mxGeometry x="-350" y="40" width="420" height="20" as="geometry" />
        </mxCell>
        <mxCell id="yhu19qPl4EtbxYkLdDcr-8" style="edgeStyle=orthogonalEdgeStyle;rounded=0;orthogonalLoop=1;jettySize=auto;html=1;entryX=0;entryY=0.5;entryDx=0;entryDy=0;strokeColor=#007FFF;" edge="1" parent="1" source="ajJ4fGMmNMzAooFR_enY-53" target="yhu19qPl4EtbxYkLdDcr-3">
          <mxGeometry relative="1" as="geometry">
            <mxPoint x="-570" y="-190" as="targetPoint" />
            <Array as="points">
              <mxPoint x="-440" y="820" />
              <mxPoint x="-440" y="-510" />
            </Array>
          </mxGeometry>
        </mxCell>
        <mxCell id="ajJ4fGMmNMzAooFR_enY-53" value="" style="rounded=0;whiteSpace=wrap;html=1;fillColor=#1ba1e2;strokeWidth=1;strokeColor=#006EAF;opacity=50;fontColor=#ffffff;" vertex="1" parent="1">
          <mxGeometry x="-390" y="810" width="420" height="20" as="geometry" />
        </mxCell>
        <mxCell id="yhu19qPl4EtbxYkLdDcr-9" style="edgeStyle=orthogonalEdgeStyle;rounded=0;orthogonalLoop=1;jettySize=auto;html=1;entryX=0;entryY=0.25;entryDx=0;entryDy=0;strokeColor=#007FFF;" edge="1" parent="1" source="ajJ4fGMmNMzAooFR_enY-54" target="ajJ4fGMmNMzAooFR_enY-19">
          <mxGeometry relative="1" as="geometry">
            <Array as="points">
              <mxPoint x="360" y="-334" />
              <mxPoint x="360" y="-577" />
            </Array>
          </mxGeometry>
        </mxCell>
        <mxCell id="ajJ4fGMmNMzAooFR_enY-54" value="" style="rounded=0;whiteSpace=wrap;html=1;fillColor=#1ba1e2;strokeWidth=1;strokeColor=#006EAF;opacity=50;fontColor=#ffffff;" vertex="1" parent="1">
          <mxGeometry x="410" y="-344" width="420" height="20" as="geometry" />
        </mxCell>
        <mxCell id="ajJ4fGMmNMzAooFR_enY-11" value="" style="rounded=0;whiteSpace=wrap;html=1;strokeWidth=1;opacity=30;fillColor=#e3c800;fontColor=#000000;strokeColor=#B09500;" vertex="1" parent="1">
          <mxGeometry x="-350" y="-610" width="420" height="20" as="geometry" />
        </mxCell>
        <mxCell id="ajJ4fGMmNMzAooFR_enY-58" value="" style="rounded=0;whiteSpace=wrap;html=1;fillColor=#1ba1e2;strokeWidth=1;strokeColor=#006EAF;opacity=50;fontColor=#ffffff;" vertex="1" parent="1">
          <mxGeometry x="-390" y="210" width="420" height="583" as="geometry" />
        </mxCell>
        <mxCell id="yhu19qPl4EtbxYkLdDcr-2" value="" style="rounded=0;whiteSpace=wrap;html=1;strokeWidth=1;opacity=30;fillColor=#a20025;fontColor=#ffffff;strokeColor=#6F0000;" vertex="1" parent="1">
          <mxGeometry x="-350" y="-495" width="420" height="515" as="geometry" />
        </mxCell>
        <mxCell id="yhu19qPl4EtbxYkLdDcr-3" value="" style="rounded=0;whiteSpace=wrap;html=1;strokeWidth=1;opacity=30;fillColor=#a20025;fontColor=#ffffff;strokeColor=#6F0000;" vertex="1" parent="1">
          <mxGeometry x="-350" y="-520" width="420" height="20" as="geometry" />
        </mxCell>
        <mxCell id="yhu19qPl4EtbxYkLdDcr-4" value="" style="rounded=0;whiteSpace=wrap;html=1;strokeWidth=1;opacity=30;fillColor=#a20025;fontColor=#ffffff;strokeColor=#6F0000;" vertex="1" parent="1">
          <mxGeometry x="430" y="-180" width="420" height="515" as="geometry" />
        </mxCell>
        <mxCell id="yhu19qPl4EtbxYkLdDcr-5" value="" style="rounded=0;whiteSpace=wrap;html=1;strokeWidth=1;opacity=30;fillColor=#a20025;fontColor=#ffffff;strokeColor=#6F0000;" vertex="1" parent="1">
          <mxGeometry x="430" y="-205" width="420" height="20" as="geometry" />
        </mxCell>
        <mxCell id="yhu19qPl4EtbxYkLdDcr-7" value="" style="rounded=0;whiteSpace=wrap;html=1;fillColor=#1ba1e2;strokeWidth=1;strokeColor=#006EAF;opacity=50;fontColor=#ffffff;" vertex="1" parent="1">
          <mxGeometry x="420" y="388" width="420" height="583" as="geometry" />
        </mxCell>
      </root>
    </mxGraphModel>
  </diagram>
</mxfile>
